<?xml version="1.0" encoding="UTF-8"?><svg id="uuid-9287f56b-0ff4-402d-b84f-65f41a31d299" xmlns="http://www.w3.org/2000/svg" xmlns:xlink="http://www.w3.org/1999/xlink" viewBox="0 0 437.15 594.89"><defs><style>.uuid-80711258-e823-44d5-a9b6-8fd13a6be43f,.uuid-894a4b5b-4f0b-4a2e-888b-4e3a2cacf443{font-size:14px;}.uuid-80711258-e823-44d5-a9b6-8fd13a6be43f,.uuid-894a4b5b-4f0b-4a2e-888b-4e3a2cacf443,.uuid-9929af95-8c82-40fa-997f-bff691ed322e{font-family:Helvetica-Bold, Helvetica;font-weight:700;}.uuid-80711258-e823-44d5-a9b6-8fd13a6be43f,.uuid-b8f82b19-8f65-4e06-8619-2ee6ea2499b6,.uuid-9929af95-8c82-40fa-997f-bff691ed322e{fill:#0072a7;}.uuid-10091fa1-da4f-4576-b6d5-a937194839eb{clip-path:url(#uuid-24509c2c-7419-467c-a095-31f3a0c5d2bd);}.uuid-086e487f-42da-4377-bd09-0dff14426168{clip-path:url(#uuid-3788d5e1-60d8-48ef-ba5e-7cbee8e13a11);}.uuid-2934ea9e-a5a7-4cce-9506-ee1ad6a12beb{clip-path:url(#uuid-4a1a5071-c50e-4e94-bda3-af95476dedc3);}.uuid-2b134ebf-d51f-4013-ab6e-0212787a4f53{stroke:#000;stroke-width:.75px;}.uuid-2b134ebf-d51f-4013-ab6e-0212787a4f53,.uuid-dd3ca31d-37d4-4e68-8239-f158ee8f5dab,.uuid-ad834ac0-5ab2-4f72-b03a-82347ea32877,.uuid-49d61758-603b-480e-ba99-0ac677404281,.uuid-e8934426-d7fe-45db-acf4-816f1a87f327{fill:none;}.uuid-2b134ebf-d51f-4013-ab6e-0212787a4f53,.uuid-ad834ac0-5ab2-4f72-b03a-82347ea32877,.uuid-49d61758-603b-480e-ba99-0ac677404281,.uuid-e8934426-d7fe-45db-acf4-816f1a87f327{stroke-linecap:round;stroke-linejoin:round;}.uuid-67bc194a-14fc-484a-bed0-486605d31c22{clip-path:url(#uuid-541c3613-901a-4f16-b927-aa58075b189a);}.uuid-90895e96-7b5c-456d-bdbd-21468126b86b{clip-path:url(#uuid-29e5bd6e-e062-4d4b-86e6-6e7b80f43f40);}.uuid-26833e2d-1fc3-4900-8435-364a6ac104ca{letter-spacing:2.05em;}.uuid-62aef2d7-2d06-4d2a-a6d8-873348a36240,.uuid-e668d5ec-1c63-456d-a037-49b691b3461c{font-family:SymbolMT, Symbol;}.uuid-62aef2d7-2d06-4d2a-a6d8-873348a36240,.uuid-e668d5ec-1c63-456d-a037-49b691b3461c,.uuid-6dee1960-5528-477d-9fb2-9bb136fd6837,.uuid-c03f3726-3caf-4cfd-849f-0e1ef41235a9,.uuid-456f5b5b-46bc-4066-97e7-6b6950d51364{font-size:7.92px;}.uuid-62aef2d7-2d06-4d2a-a6d8-873348a36240,.uuid-c03f3726-3caf-4cfd-849f-0e1ef41235a9{fill:#006400;}.uuid-70c311e7-52d8-43e0-92f0-a4abf4b88080{fill:#fff;}.uuid-5dc3fbb7-a5d3-4d57-ac3c-620662ed0474{clip-path:url(#uuid-3dfacad9-88f3-4e56-8719-b3df3e70e852);}.uuid-b6c00a44-6eb3-44bd-b1a9-c6eccb33e35b{letter-spacing:1.64em;}.uuid-0b939438-459f-4380-a884-a58235f7f40b{letter-spacing:2.06em;}.uuid-c1d9f7e9-672a-4b3e-86ce-b77af966e590{clip-path:url(#uuid-b3dd88f0-7c98-467e-bb4c-10079368b262);}.uuid-f13eaf3c-9214-4ee7-b89a-219b5a3b6fd9{clip-path:url(#uuid-3eacb560-7ce7-4b6a-8541-295dbc2f032d);}.uuid-6c3cae4f-9b71-4697-b92f-b026574fe705{letter-spacing:1.64em;}.uuid-d2aeea92-0184-4e5f-9e7a-4fb264d2b5ee{clip-path:url(#uuid-7f517ccc-1809-4d33-920e-96ab0bd2e893);}.uuid-898a5ef3-ce62-482d-aaed-1db51fa560e0{letter-spacing:2.05em;}.uuid-9ae81868-a05d-4ec7-a721-e61964ce6e3b{clip-path:url(#uuid-ccaa63de-5673-484b-b6e1-1d9e8ef7f248);}.uuid-83dd7acf-bdb6-48a1-8431-c7af36689def{letter-spacing:1.64em;}.uuid-eccee597-8fe9-4fbe-b94f-17bf9a050c55{letter-spacing:-.02em;}.uuid-6dee1960-5528-477d-9fb2-9bb136fd6837{fill:#8b0000;}.uuid-6dee1960-5528-477d-9fb2-9bb136fd6837,.uuid-c03f3726-3caf-4cfd-849f-0e1ef41235a9,.uuid-456f5b5b-46bc-4066-97e7-6b6950d51364{font-family:ArialMT, Arial;}.uuid-0206c3ba-ad2e-4d6c-b071-19539d62f522{letter-spacing:2.06em;}.uuid-ad834ac0-5ab2-4f72-b03a-82347ea32877{stroke:red;stroke-width:1.5px;}.uuid-ad834ac0-5ab2-4f72-b03a-82347ea32877,.uuid-e8934426-d7fe-45db-acf4-816f1a87f327{opacity:.5;}.uuid-5676c29f-2020-4730-9256-9a1c349da0c8{clip-path:url(#uuid-f9528cc4-6ce6-4255-ba4c-e5d6b5999d09);}.uuid-61550474-ef4b-40d9-9b10-1c46eb11b529{clip-path:url(#uuid-1b0a0bfa-30b7-474d-b995-830f57805196);}.uuid-49d61758-603b-480e-ba99-0ac677404281{stroke:#262626;stroke-dasharray:5.25 5.25;stroke-width:1.31px;}.uuid-49d61758-603b-480e-ba99-0ac677404281,.uuid-cac8c383-8332-48a9-acd4-3dd706da56a0{opacity:.75;}.uuid-a01171db-9f05-4a4d-aa26-5b2227ec6f7c{clip-path:url(#uuid-a61c9146-9c3d-47cb-85f9-7f9cf79a0d25);}.uuid-cac8c383-8332-48a9-acd4-3dd706da56a0{fill:red;}.uuid-c0f5e4ed-210c-4de2-8a3f-edb007e9c808{letter-spacing:0em;}.uuid-0b20ed49-8da6-4c3c-b5ff-3f47649b1fce{letter-spacing:1.64em;}.uuid-414d941f-a63f-44c4-be1c-f686097197f5{clip-path:url(#uuid-a2a74bcf-9c51-48da-bf1f-0d2a8489e233);}.uuid-0b7b7b8a-af8b-4c02-821f-6214767ca6e3{clip-path:url(#uuid-b99991fa-aa63-4137-bade-3b994548f036);}.uuid-e8934426-d7fe-45db-acf4-816f1a87f327{stroke:#006400;stroke-width:1.12px;}.uuid-1b137f87-60ef-4d46-8227-81d24d48a349{clip-path:url(#uuid-8068701c-dc78-4651-a0d4-53a9c588799f);}.uuid-f1a1784f-c8cf-4d40-941d-315e86c8c176{clip-path:url(#uuid-39fbd331-0bfb-4ae2-995d-09495169733d);}.uuid-9929af95-8c82-40fa-997f-bff691ed322e{font-size:16px;}</style><clipPath id="uuid-a61c9146-9c3d-47cb-85f9-7f9cf79a0d25"><rect class="uuid-dd3ca31d-37d4-4e68-8239-f158ee8f5dab" x="68.62" y="31.89" width="358.07" height="103"/></clipPath><clipPath id="uuid-3eacb560-7ce7-4b6a-8541-295dbc2f032d"><rect class="uuid-dd3ca31d-37d4-4e68-8239-f158ee8f5dab" x="68.62" y="94.89" width="358.07" height="2"/></clipPath><clipPath id="uuid-3788d5e1-60d8-48ef-ba5e-7cbee8e13a11"><rect class="uuid-dd3ca31d-37d4-4e68-8239-f158ee8f5dab" x="68.62" y="133.89" width="358.07" height="2"/></clipPath><clipPath id="uuid-7f517ccc-1809-4d33-920e-96ab0bd2e893"><rect class="uuid-dd3ca31d-37d4-4e68-8239-f158ee8f5dab" x="68.62" y="175.89" width="358.07" height="101"/></clipPath><clipPath id="uuid-a2a74bcf-9c51-48da-bf1f-0d2a8489e233"><rect class="uuid-dd3ca31d-37d4-4e68-8239-f158ee8f5dab" x="68.62" y="238.89" width="358.07" height="2"/></clipPath><clipPath id="uuid-8068701c-dc78-4651-a0d4-53a9c588799f"><rect class="uuid-dd3ca31d-37d4-4e68-8239-f158ee8f5dab" x="68.62" y="275.89" width="358.07" height="2"/></clipPath><clipPath id="uuid-24509c2c-7419-467c-a095-31f3a0c5d2bd"><rect class="uuid-dd3ca31d-37d4-4e68-8239-f158ee8f5dab" x="327.62" y="155.22" width="90.54" height="28.67"/></clipPath><clipPath id="uuid-ccaa63de-5673-484b-b6e1-1d9e8ef7f248"><rect class="uuid-dd3ca31d-37d4-4e68-8239-f158ee8f5dab" x="68.62" y="331.89" width="358.07" height="92"/></clipPath><clipPath id="uuid-b3dd88f0-7c98-467e-bb4c-10079368b262"><rect class="uuid-dd3ca31d-37d4-4e68-8239-f158ee8f5dab" x="68.62" y="406.89" width="358.07" height="2"/></clipPath><clipPath id="uuid-f9528cc4-6ce6-4255-ba4c-e5d6b5999d09"><rect class="uuid-dd3ca31d-37d4-4e68-8239-f158ee8f5dab" x="68.62" y="417.89" width="358.07" height="2"/></clipPath><clipPath id="uuid-39fbd331-0bfb-4ae2-995d-09495169733d"><rect class="uuid-dd3ca31d-37d4-4e68-8239-f158ee8f5dab" x="326.54" y="298.86" width="108.54" height="28.55"/></clipPath><clipPath id="uuid-4a1a5071-c50e-4e94-bda3-af95476dedc3"><rect class="uuid-dd3ca31d-37d4-4e68-8239-f158ee8f5dab" x="68.62" y="479.89" width="358.07" height="86"/></clipPath><clipPath id="uuid-541c3613-901a-4f16-b927-aa58075b189a"><rect class="uuid-dd3ca31d-37d4-4e68-8239-f158ee8f5dab" x="68.62" y="560.89" width="127.53" height="6"/></clipPath><clipPath id="uuid-b99991fa-aa63-4137-bade-3b994548f036"><rect class="uuid-dd3ca31d-37d4-4e68-8239-f158ee8f5dab" x="397.15" y="559.89" width="29.54" height="7"/></clipPath><clipPath id="uuid-3dfacad9-88f3-4e56-8719-b3df3e70e852"><rect class="uuid-dd3ca31d-37d4-4e68-8239-f158ee8f5dab" x="68.62" y="562.89" width="358.07" height="2"/></clipPath><clipPath id="uuid-1b0a0bfa-30b7-474d-b995-830f57805196"><rect class="uuid-dd3ca31d-37d4-4e68-8239-f158ee8f5dab" x="68.62" y="559.89" width="358.07" height="2"/></clipPath><clipPath id="uuid-29e5bd6e-e062-4d4b-86e6-6e7b80f43f40"><rect class="uuid-dd3ca31d-37d4-4e68-8239-f158ee8f5dab" x="327.15" y="439.47" width="99.54" height="29.43"/></clipPath></defs><g class="uuid-a01171db-9f05-4a4d-aa26-5b2227ec6f7c"><polyline class="uuid-2b134ebf-d51f-4013-ab6e-0212787a4f53" points="68.62 110.91 69.52 87.36 70.42 93.04 71.32 98.12 72.22 97.3 73.12 102.81 74.02 98.12 74.92 121.85 75.82 104.25 76.71 127.39 77.62 122.21 78.52 74.82 79.41 95.89 80.32 108.45 81.21 109.55 82.11 103.87 83.02 109.49 83.91 103.88 84.81 92.67 85.71 82.63 86.61 112.16 87.51 104.92 88.41 104.45 89.31 80.08 90.21 77.44 91.11 106.57 92.01 100.64 92.91 111.65 93.81 107.04 94.71 100.9 95.61 69.04 96.51 104.65 97.41 56.35 98.31 79.72 99.21 91.34 100.11 87.11 101.01 96.34 101.91 105.44 102.81 106.07 103.71 75.93 104.61 62.69 105.51 113.2 106.41 61.53 107.3 98.08 108.2 99.18 109.11 100.98 110 105.38 110.9 38.93 111.8 95.39 112.7 114.25 113.6 121.04 114.5 83.48 115.4 81.4 116.3 98.61 117.2 109.82 118.1 80.66 119 80.47 119.9 97.2 120.8 95.22 121.7 92.82 122.6 95.75 123.5 94.46 124.4 75.27 125.3 86.3 126.2 77.76 127.1 97.72 128 96.11 128.9 93.49 129.8 109.78 130.7 70.92 131.6 70.28 132.5 83.6 133.39 40.76 134.3 86.48 135.2 85.81 136.09 72.3 137 115.78 137.89 104.13 138.79 79.18 139.7 86.51 140.59 83.33 141.49 75.53 142.39 60.27 143.29 91.85 144.19 92.74 145.09 102.3 145.99 117.82 146.89 86.07 147.79 67.01 148.69 44.6 149.59 81.93 150.49 94.27 151.39 79.82 152.29 99.53 153.19 113.5 154.09 103.96 154.99 113.23 155.89 110.05 156.79 106.49 157.69 121.37 158.59 111.64 159.49 117.03 160.39 120.01 161.29 120.64 162.19 119.16 163.09 105.65 163.98 118.1 164.89 98.96 165.79 112 166.68 82.76 167.59 119.29 168.48 95.97 169.38 98.3 170.29 106.49 171.18 104.98 172.08 81.89 172.98 62.58 173.88 46.94 174.78 88.29 175.68 71.61 176.58 59.91 177.48 73.22 178.38 88.53 179.28 108.48 180.18 116.72 181.08 123.64 181.98 87.69 182.88 79.27 183.78 82.96 184.68 80.59 185.58 104.21 186.48 106.37 187.38 79.58 188.28 51.08 189.18 72.8 190.08 56.84 190.98 64.99 191.88 90.34 192.78 102.78 193.68 123.81 194.57 119.12 195.48 126.08 196.38 120.09 197.27 103.66 198.17 102.89 199.07 104.44 199.97 113.61 200.87 116.23 201.77 116.38 202.67 99.72 203.57 103.08 204.47 119.92 205.37 98.73 206.27 90.03 207.17 101.78 208.07 119.67 208.97 107.53 209.87 117.21 210.77 108.91 211.67 108.12 212.57 119.16 213.47 98.57 214.37 86.33 215.27 51.51 216.17 108.98 217.07 124.85 217.96 79.84 218.87 97.46 219.77 81.23 220.66 99.23 221.57 110.08 222.46 91.14 223.36 80.33 224.27 94.01 225.16 77.9 226.06 114.57 226.96 97.21 227.86 59.33 228.76 84.62 229.66 87.86 230.56 75.68 231.46 75.88 232.36 62.5 233.26 102.39 234.16 100.65 235.06 102.21 235.96 71.05 236.86 114.33 237.76 100.97 238.66 78.41 239.56 107.34 240.46 91.21 241.36 94.53 242.26 82.01 243.16 100.9 244.06 89.86 244.96 104.72 245.86 75.51 246.76 88.49 247.66 81.53 248.55 97.59 249.46 113.85 250.36 108.41 251.25 65.5 252.16 81.08 253.05 104.07 253.95 108.23 254.86 105.26 255.75 119.26 256.65 88.74 257.55 89.32 258.45 98.25 259.35 84.94 260.25 80.55 261.15 111.67 262.05 122.43 262.95 119.67 263.85 133.88 264.75 121.01 265.65 120.09 266.55 120.82 267.45 76.99 268.35 86.64 269.25 97.77 270.15 76.18 271.05 76.64 271.95 112.65 272.85 110.95 273.75 92.42 274.65 112.67 275.55 116.66 276.45 121.3 277.35 124.48 278.25 126.3 279.14 80.02 280.05 76.66 280.95 87.23 281.84 103.51 282.75 122.33 283.64 120.86 284.54 116.62 285.44 109.4 286.34 124.93 287.24 123.42 288.14 117.9 289.04 118.19 289.94 92.34 290.84 91.3 291.74 100.66 292.64 105.41 293.54 81.19 294.44 76.58 295.34 115.61 296.24 110.12 297.14 129.68 298.04 122.63 298.94 96.19 299.84 32.63 300.74 90.26 301.64 54.33 302.54 49.76 303.44 59.24 304.34 95.66 305.24 89.23 306.14 90.97 307.04 104.59 307.93 110.19 308.84 121.83 309.73 115.08 310.63 99.15 311.54 77.57 312.43 74.07 313.33 86.04 314.23 54.22 315.13 52.91 316.03 99.13 316.93 123.79 317.83 125.57 318.73 130.21 319.63 100.5 320.53 108.12 321.43 98.17 322.33 113.01 323.23 115.33 324.13 113.8 325.03 110.33 325.93 111.53 326.83 94.08 327.73 113.86 328.63 115.9 329.53 117.39 330.43 112.77 331.33 130.67 332.23 117.58 333.13 92.25 334.03 109.41 334.93 85.49 335.82 95.32 336.73 102.24 337.63 114.39 338.52 112.51 339.43 112.52 340.32 111.94 341.22 115.19 342.13 108.16 343.02 111.13 343.92 99.63 344.82 73.46 345.72 74.41 346.62 81.96 347.52 87.83 348.42 97.21 349.32 87.08 350.22 104.59 351.12 109.14 352.02 90.31 352.92 100.68 353.82 76.99 354.72 78.67 355.62 116.96 356.52 113.21 357.42 112.88 358.32 103.64 359.22 114.55 360.12 125.43 361.02 132.33 361.92 131.93 362.82 122.64 363.71 118.62 364.62 110.32 365.52 107.99 366.41 107.65 367.32 116.86 368.21 112.84 369.11 105.28 370.02 86.29 370.91 87.4 371.81 97.17 372.71 95.8 373.61 86.72 374.51 73.8 375.41 80.71 376.31 77.81 377.21 76.37 378.11 83.55 379.01 87.58 379.91 91.35 380.81 107.29 381.71 80.73 382.61 57.19 383.51 70.8 384.41 100.91 385.31 86.62 386.21 89.41 387.11 78.33 388.01 108.73 388.91 109.51 389.81 98.58 390.71 117.95 391.61 112.2 392.51 97.71 393.41 92.08 394.3 91.96 395.2 110.64 396.11 115.07 397 99.26 397.9 96.64 398.8 109.54 399.7 114.11 400.6 85.8 401.5 77.39 402.4 108.75 403.3 108.59 404.2 119.75 405.1 110.39 406 108.5 406.9 104.89 407.8 106.51 408.7 96.43 409.6 77.81 410.5 111.86 411.4 125 412.3 101.94 413.2 89.21 414.1 48.3 415 58.46 415.9 87.51 416.8 79.61 417.7 42.87 418.6 61.25 419.5 124.05 420.39 115.41 421.3 103.8 422.2 121.46 423.09 120.71 424 75.65 424.89 72.67 425.79 72.5 426.7 59.65"/></g><text class="uuid-e668d5ec-1c63-456d-a037-49b691b3461c" transform="translate(51.04 92.5) rotate(-90)"><tspan x="0" y="0">p</tspan></text><line class="uuid-2b134ebf-d51f-4013-ab6e-0212787a4f53" x1="68.62" y1="143.82" x2="426.7" y2="143.82"/><line class="uuid-2b134ebf-d51f-4013-ab6e-0212787a4f53" x1="91.86" y1="143.82" x2="91.86" y2="148.57"/><line class="uuid-2b134ebf-d51f-4013-ab6e-0212787a4f53" x1="115.85" y1="143.82" x2="115.85" y2="148.57"/><line class="uuid-2b134ebf-d51f-4013-ab6e-0212787a4f53" x1="139.84" y1="143.82" x2="139.84" y2="148.57"/><line class="uuid-2b134ebf-d51f-4013-ab6e-0212787a4f53" x1="163.84" y1="143.82" x2="163.84" y2="148.57"/><line class="uuid-2b134ebf-d51f-4013-ab6e-0212787a4f53" x1="187.83" y1="143.82" x2="187.83" y2="148.57"/><line class="uuid-2b134ebf-d51f-4013-ab6e-0212787a4f53" x1="211.82" y1="143.82" x2="211.82" y2="148.57"/><line class="uuid-2b134ebf-d51f-4013-ab6e-0212787a4f53" x1="235.81" y1="143.82" x2="235.81" y2="148.57"/><line class="uuid-2b134ebf-d51f-4013-ab6e-0212787a4f53" x1="259.8" y1="143.82" x2="259.8" y2="148.57"/><line class="uuid-2b134ebf-d51f-4013-ab6e-0212787a4f53" x1="283.79" y1="143.82" x2="283.79" y2="148.57"/><line class="uuid-2b134ebf-d51f-4013-ab6e-0212787a4f53" x1="307.79" y1="143.82" x2="307.79" y2="148.57"/><line class="uuid-2b134ebf-d51f-4013-ab6e-0212787a4f53" x1="331.78" y1="143.82" x2="331.78" y2="148.57"/><line class="uuid-2b134ebf-d51f-4013-ab6e-0212787a4f53" x1="355.77" y1="143.82" x2="355.77" y2="148.57"/><line class="uuid-2b134ebf-d51f-4013-ab6e-0212787a4f53" x1="379.76" y1="143.82" x2="379.76" y2="148.57"/><line class="uuid-2b134ebf-d51f-4013-ab6e-0212787a4f53" x1="403.75" y1="143.82" x2="403.75" y2="148.57"/><line class="uuid-2b134ebf-d51f-4013-ab6e-0212787a4f53" x1="68.62" y1="138.98" x2="68.62" y2="13.1"/><line class="uuid-2b134ebf-d51f-4013-ab6e-0212787a4f53" x1="68.62" y1="138.98" x2="63.87" y2="138.98"/><line class="uuid-2b134ebf-d51f-4013-ab6e-0212787a4f53" x1="68.62" y1="121.69" x2="63.87" y2="121.69"/><line class="uuid-2b134ebf-d51f-4013-ab6e-0212787a4f53" x1="68.62" y1="104.39" x2="63.87" y2="104.39"/><line class="uuid-2b134ebf-d51f-4013-ab6e-0212787a4f53" x1="68.62" y1="87.1" x2="63.87" y2="87.1"/><line class="uuid-2b134ebf-d51f-4013-ab6e-0212787a4f53" x1="68.62" y1="69.81" x2="63.87" y2="69.81"/><line class="uuid-2b134ebf-d51f-4013-ab6e-0212787a4f53" x1="68.62" y1="52.52" x2="63.87" y2="52.52"/><line class="uuid-2b134ebf-d51f-4013-ab6e-0212787a4f53" x1="68.62" y1="35.23" x2="63.87" y2="35.23"/><line class="uuid-2b134ebf-d51f-4013-ab6e-0212787a4f53" x1="68.62" y1="17.94" x2="63.87" y2="17.94"/><text class="uuid-456f5b5b-46bc-4066-97e7-6b6950d51364" transform="translate(56.13 141.81)"><tspan x="0" y="0">0</tspan></text><text class="uuid-456f5b5b-46bc-4066-97e7-6b6950d51364" transform="translate(56.13 124.52)"><tspan x="0" y="0">2</tspan></text><text class="uuid-456f5b5b-46bc-4066-97e7-6b6950d51364" transform="translate(56.13 107.23)"><tspan x="0" y="0">4</tspan></text><text class="uuid-456f5b5b-46bc-4066-97e7-6b6950d51364" transform="translate(56.13 89.94)"><tspan x="0" y="0">6</tspan></text><text class="uuid-456f5b5b-46bc-4066-97e7-6b6950d51364" transform="translate(56.13 72.65)"><tspan x="0" y="0">8</tspan></text><text class="uuid-456f5b5b-46bc-4066-97e7-6b6950d51364" transform="translate(51.73 55.36)"><tspan x="0" y="0">10</tspan></text><text class="uuid-456f5b5b-46bc-4066-97e7-6b6950d51364" transform="translate(51.73 38.07)"><tspan x="0" y="0">12</tspan></text><text class="uuid-456f5b5b-46bc-4066-97e7-6b6950d51364" transform="translate(51.73 20.78)"><tspan x="0" y="0">14</tspan></text><g class="uuid-f13eaf3c-9214-4ee7-b89a-219b5a3b6fd9"><line class="uuid-e8934426-d7fe-45db-acf4-816f1a87f327" x1="67.87" y1="96.17" x2="427.74" y2="96.17"/></g><g class="uuid-086e487f-42da-4377-bd09-0dff14426168"><line class="uuid-49d61758-603b-480e-ba99-0ac677404281" x1="67.87" y1="134.73" x2="427.74" y2="134.73"/></g><text class="uuid-c03f3726-3caf-4cfd-849f-0e1ef41235a9" transform="translate(335.25 19.71)"><tspan x="0" y="0">mean </tspan></text><text class="uuid-62aef2d7-2d06-4d2a-a6d8-873348a36240" transform="translate(357.25 19.71)"><tspan x="0" y="0">p</tspan></text><text class="uuid-c03f3726-3caf-4cfd-849f-0e1ef41235a9" transform="translate(335.25 29.58)"><tspan x="0" y="0">4.95</tspan></text><text class="uuid-6dee1960-5528-477d-9fb2-9bb136fd6837" transform="translate(379.38 19.83)"><tspan x="0" y="0">AncPop: </tspan><tspan x="0" y="9.5">no troughs</tspan></text><g class="uuid-d2aeea92-0184-4e5f-9e7a-4fb264d2b5ee"><polyline class="uuid-2b134ebf-d51f-4013-ab6e-0212787a4f53" points="68.62 250.04 69.52 231.1 70.42 245.69 71.32 240.16 72.22 236.53 73.12 243.32 74.02 245.77 74.92 263.82 75.82 245.74 76.71 265.8 77.62 262.31 78.52 210.98 79.41 234.95 80.32 250.88 81.21 265.97 82.11 259.58 83.02 262.91 83.91 259.57 84.81 242.94 85.71 229.2 86.61 258.15 87.51 247.38 88.41 247.51 89.31 225.97 90.21 216.43 91.11 242.65 92.01 238.3 92.91 258.16 93.81 253.39 94.71 242.07 95.61 211.7 96.51 248.46 97.41 198.79 98.31 223.53 99.21 238.65 100.11 227.9 101.01 237.52 101.91 249.13 102.81 249.12 103.71 225.08 104.61 212.78 105.51 259.91 106.41 198.44 107.3 236.03 108.2 246.39 109.11 242.28 110 241.22 110.9 176.32 111.8 235.63 112.7 255.17 113.6 260.57 114.5 227.51 115.4 238.71 116.3 238.35 117.2 256.37 118.1 228.05 119 222.23 119.9 238.64 120.8 234.82 121.7 240.29 122.6 237.09 123.5 227.54 124.4 215.01 125.3 224.56 126.2 217.69 127.1 233.36 128 229.66 128.9 235.01 129.8 253.69 130.7 212.27 131.6 213.97 132.5 222.35 133.39 179.64 134.3 229.12 135.2 225.36 136.09 210.96 137 246.37 137.89 255.54 138.79 230.55 139.7 230.26 140.59 227.18 141.49 204.89 142.39 197.04 143.29 236.31 144.19 232.85 145.09 248.63 145.99 260.94 146.89 233.85 147.79 212.32 148.69 185.23 149.59 233.29 150.49 240.57 151.39 230.1 152.29 242.45 153.19 257.72 154.09 249.41 154.99 255.21 155.89 248.75 156.79 248.43 157.69 264.28 158.59 251.74 159.49 254.87 160.39 258.94 161.29 258.99 162.19 258.95 163.09 246.72 163.98 255.68 164.89 238.14 165.79 247.82 166.68 231.39 167.59 264.12 168.48 242.09 169.38 245.93 170.29 251.89 171.18 259.54 172.08 244.92 172.98 207.67 173.88 182.83 174.78 228.23 175.68 219.75 176.58 203.31 177.48 218.9 178.38 228.75 179.28 251.64 180.18 263.5 181.08 272.12 181.98 244.97 182.88 229.93 183.78 224.02 184.68 220.6 185.58 247.84 186.48 254.51 187.38 224.4 188.28 196.46 189.18 218.57 190.08 204.1 190.98 209.82 191.88 235.32 192.78 240.33 193.68 264.62 194.57 265.78 195.48 269.01 196.38 263.96 197.27 249.92 198.17 247.68 199.07 243.89 199.97 258.46 200.87 255.69 201.77 253.62 202.67 239.68 203.57 248.2 204.47 263.06 205.37 242.93 206.27 227.71 207.17 238.36 208.07 257.32 208.97 247.38 209.87 260.69 210.77 254.84 211.67 249.34 212.57 259.79 213.47 239.55 214.37 236.79 215.27 200.82 216.17 255.64 217.07 266.44 217.96 219.78 218.87 239.72 219.77 224.43 220.66 240.33 221.57 251.23 222.46 235.25 223.36 223.6 224.27 247.51 225.16 232 226.06 256.69 226.96 242.2 227.86 233.71 228.76 234.85 229.66 235.14 230.56 219.79 231.46 221.42 232.36 197.81 233.26 241.44 234.16 238.99 235.06 247.86 235.96 221.33 236.86 257.44 237.76 247.16 238.66 220.57 239.56 254.08 240.46 238.68 241.36 239.17 242.26 216.89 243.16 242 244.06 241.16 244.96 263.97 245.86 243.28 246.76 236.51 247.66 226.39 248.55 231.48 249.46 251.16 250.36 252.18 251.25 218.86 252.16 233.29 253.05 247.03 253.95 256.41 254.86 254.73 255.75 260.3 256.65 234.15 257.55 234.94 258.45 244.75 259.35 232.23 260.25 230.42 261.15 260.11 262.05 262.77 262.95 263.73 263.85 274.79 264.75 268.42 265.65 267.05 266.55 258.14 267.45 220.88 268.35 228.1 269.25 240.22 270.15 225.59 271.05 219.12 271.95 252.67 272.85 251.51 273.75 230.37 274.65 241.88 275.55 256.89 276.45 267.17 277.35 267.75 278.25 269.3 279.14 226.58 280.05 222.08 280.95 226.64 281.84 254.03 282.75 263.93 283.64 271.71 284.54 260.63 285.44 248.52 286.34 266.72 287.24 263.28 288.14 260.05 289.04 262.88 289.94 235.07 290.84 234.8 291.74 243.55 292.64 246.75 293.54 223.95 294.44 217.95 295.34 257.93 296.24 254.39 297.14 271.45 298.04 265.3 298.94 233.9 299.84 179.77 300.74 233.26 301.64 198.33 302.54 197.51 303.44 206.17 304.34 229.78 305.24 224.16 306.14 224.22 307.04 238.06 307.93 251.52 308.84 261.97 309.73 244.69 310.63 235.33 311.54 215.85 312.43 216.72 313.33 234.23 314.23 212.66 315.13 212.73 316.03 249.74 316.93 267.93 317.83 270.95 318.73 272.68 319.63 261.29 320.53 262.76 321.43 249.87 322.33 262.61 323.23 261.01 324.13 255.76 325.03 254.45 325.93 259.37 326.83 241.84 327.73 264.45 328.63 260.86 329.53 262.9 330.43 256.5 331.33 274.62 332.23 265.46 333.13 246.01 334.03 256.45 334.93 233.13 335.82 239.73 336.73 244.81 337.63 258.21 338.52 258.63 339.43 254.69 340.32 250.45 341.22 258.74 342.13 243.11 343.02 250.43 343.92 234.3 344.82 216.04 345.72 202.67 346.62 212.44 347.52 232.56 348.42 245.49 349.32 234.51 350.22 245.09 351.12 251.17 352.02 234.49 352.92 251.67 353.82 243.88 354.72 236.45 355.62 260.6 356.52 261.81 357.42 249.25 358.32 243.5 359.22 249.88 360.12 266.39 361.02 275.45 361.92 276.08 362.82 266.28 363.71 253.93 364.62 247.47 365.52 251.88 366.41 249.18 367.32 258.91 368.21 254.43 369.11 246.54 370.02 231.78 370.91 237.57 371.81 241.41 372.71 247.67 373.61 234.92 374.51 223.29 375.41 223.47 376.31 235.22 377.21 238.71 378.11 243.87 379.01 236.64 379.91 239.08 380.81 252.08 381.71 230.2 382.61 213.89 383.51 213.69 384.41 232.84 385.31 226.39 386.21 231.95 387.11 222.89 388.01 256 388.91 255.73 389.81 248.45 390.71 260.86 391.61 253.14 392.51 243.46 393.41 230.69 394.3 228.51 395.2 245.13 396.11 260.84 397 249.31 397.9 239.64 398.8 258.22 399.7 257.89 400.6 232.55 401.5 228.18 402.4 262.54 403.3 265.1 404.2 263.16 405.1 248.4 406 251.98 406.9 241.95 407.8 249.21 408.7 237.31 409.6 218.56 410.5 250.67 411.4 265.24 412.3 251.92 413.2 237.41 414.1 195.31 415 203.26 415.9 232.65 416.8 222.99 417.7 197.63 418.6 222.7 419.5 269.65 420.39 258.72 421.3 246.68 422.2 264.62 423.09 269.08 424 222.64 424.89 209.61 425.79 215.68 426.7 210.1"/></g><text class="uuid-e668d5ec-1c63-456d-a037-49b691b3461c" transform="translate(51.04 234.62) rotate(-90)"><tspan x="0" y="0">p</tspan></text><line class="uuid-2b134ebf-d51f-4013-ab6e-0212787a4f53" x1="68.62" y1="285.94" x2="426.7" y2="285.94"/><line class="uuid-2b134ebf-d51f-4013-ab6e-0212787a4f53" x1="91.86" y1="285.94" x2="91.86" y2="290.69"/><line class="uuid-2b134ebf-d51f-4013-ab6e-0212787a4f53" x1="115.85" y1="285.94" x2="115.85" y2="290.69"/><line class="uuid-2b134ebf-d51f-4013-ab6e-0212787a4f53" x1="139.84" y1="285.94" x2="139.84" y2="290.69"/><line class="uuid-2b134ebf-d51f-4013-ab6e-0212787a4f53" x1="163.84" y1="285.94" x2="163.84" y2="290.69"/><line class="uuid-2b134ebf-d51f-4013-ab6e-0212787a4f53" x1="187.83" y1="285.94" x2="187.83" y2="290.69"/><line class="uuid-2b134ebf-d51f-4013-ab6e-0212787a4f53" x1="211.82" y1="285.94" x2="211.82" y2="290.69"/><line class="uuid-2b134ebf-d51f-4013-ab6e-0212787a4f53" x1="235.81" y1="285.94" x2="235.81" y2="290.69"/><line class="uuid-2b134ebf-d51f-4013-ab6e-0212787a4f53" x1="259.8" y1="285.94" x2="259.8" y2="290.69"/><line class="uuid-2b134ebf-d51f-4013-ab6e-0212787a4f53" x1="283.79" y1="285.94" x2="283.79" y2="290.69"/><line class="uuid-2b134ebf-d51f-4013-ab6e-0212787a4f53" x1="307.79" y1="285.94" x2="307.79" y2="290.69"/><line class="uuid-2b134ebf-d51f-4013-ab6e-0212787a4f53" x1="331.78" y1="285.94" x2="331.78" y2="290.69"/><line class="uuid-2b134ebf-d51f-4013-ab6e-0212787a4f53" x1="355.77" y1="285.94" x2="355.77" y2="290.69"/><line class="uuid-2b134ebf-d51f-4013-ab6e-0212787a4f53" x1="379.76" y1="285.94" x2="379.76" y2="290.69"/><line class="uuid-2b134ebf-d51f-4013-ab6e-0212787a4f53" x1="403.75" y1="285.94" x2="403.75" y2="290.69"/><line class="uuid-2b134ebf-d51f-4013-ab6e-0212787a4f53" x1="68.62" y1="281.1" x2="68.62" y2="155.22"/><line class="uuid-2b134ebf-d51f-4013-ab6e-0212787a4f53" x1="68.62" y1="281.1" x2="63.87" y2="281.1"/><line class="uuid-2b134ebf-d51f-4013-ab6e-0212787a4f53" x1="68.62" y1="263.81" x2="63.87" y2="263.81"/><line class="uuid-2b134ebf-d51f-4013-ab6e-0212787a4f53" x1="68.62" y1="246.51" x2="63.87" y2="246.51"/><line class="uuid-2b134ebf-d51f-4013-ab6e-0212787a4f53" x1="68.62" y1="229.23" x2="63.87" y2="229.23"/><line class="uuid-2b134ebf-d51f-4013-ab6e-0212787a4f53" x1="68.62" y1="211.94" x2="63.87" y2="211.94"/><line class="uuid-2b134ebf-d51f-4013-ab6e-0212787a4f53" x1="68.62" y1="194.64" x2="63.87" y2="194.64"/><line class="uuid-2b134ebf-d51f-4013-ab6e-0212787a4f53" x1="68.62" y1="177.35" x2="63.87" y2="177.35"/><line class="uuid-2b134ebf-d51f-4013-ab6e-0212787a4f53" x1="68.62" y1="160.06" x2="63.87" y2="160.06"/><text class="uuid-456f5b5b-46bc-4066-97e7-6b6950d51364" transform="translate(56.13 283.93)"><tspan x="0" y="0">0</tspan></text><text class="uuid-456f5b5b-46bc-4066-97e7-6b6950d51364" transform="translate(56.13 266.64)"><tspan x="0" y="0">2</tspan></text><text class="uuid-456f5b5b-46bc-4066-97e7-6b6950d51364" transform="translate(56.13 249.35)"><tspan x="0" y="0">4</tspan></text><text class="uuid-456f5b5b-46bc-4066-97e7-6b6950d51364" transform="translate(56.13 232.06)"><tspan x="0" y="0">6</tspan></text><text class="uuid-456f5b5b-46bc-4066-97e7-6b6950d51364" transform="translate(56.13 214.77)"><tspan x="0" y="0">8</tspan></text><text class="uuid-456f5b5b-46bc-4066-97e7-6b6950d51364" transform="translate(51.73 197.48)"><tspan x="0" y="0">10</tspan></text><text class="uuid-456f5b5b-46bc-4066-97e7-6b6950d51364" transform="translate(51.73 180.19)"><tspan x="0" y="0">12</tspan></text><text class="uuid-456f5b5b-46bc-4066-97e7-6b6950d51364" transform="translate(51.73 162.9)"><tspan x="0" y="0">14</tspan></text><g class="uuid-414d941f-a63f-44c4-be1c-f686097197f5"><line class="uuid-e8934426-d7fe-45db-acf4-816f1a87f327" x1="67.87" y1="240.18" x2="427.74" y2="240.18"/></g><g class="uuid-1b137f87-60ef-4d46-8227-81d24d48a349"><line class="uuid-49d61758-603b-480e-ba99-0ac677404281" x1="67.87" y1="276.85" x2="427.74" y2="276.85"/></g><g class="uuid-10091fa1-da4f-4576-b6d5-a937194839eb"><rect class="uuid-70c311e7-52d8-43e0-92f0-a4abf4b88080" x="328.18" y="155.22" width="89.98" height="28.51"/><text class="uuid-c03f3726-3caf-4cfd-849f-0e1ef41235a9" transform="translate(335.31 167.16)"><tspan x="0" y="0">mean </tspan></text><text class="uuid-62aef2d7-2d06-4d2a-a6d8-873348a36240" transform="translate(357.31 167.16)"><tspan x="0" y="0">p</tspan></text><text class="uuid-c03f3726-3caf-4cfd-849f-0e1ef41235a9" transform="translate(335.31 177.03)"><tspan x="0" y="0">4.73</tspan></text><text class="uuid-6dee1960-5528-477d-9fb2-9bb136fd6837" transform="translate(378.52 166.74)"><tspan x="0" y="0">1 trough</tspan></text></g><g class="uuid-9ae81868-a05d-4ec7-a721-e61964ce6e3b"><polyline class="uuid-2b134ebf-d51f-4013-ab6e-0212787a4f53" points="68.62 406.48 69.52 413.18 70.42 416.53 71.32 409.41 72.22 402.71 73.12 399.79 74.02 406.48 74.92 419.87 75.82 399.79 76.71 419.87 77.62 413.18 78.52 413.18 79.41 409.83 80.32 419.87 81.21 413.18 82.11 413.18 83.02 416.53 83.91 416.53 84.81 403.14 85.71 409.83 86.61 413.18 87.51 419.87 88.41 409.83 89.31 409.83 90.21 419.87 91.11 406.48 92.01 396.44 92.91 416.53 93.81 419.87 94.71 396.44 95.61 376.36 96.51 413.18 97.41 409.83 98.31 386.4 99.21 389.75 100.11 383.05 101.01 396.44 101.91 403.14 102.81 419.66 103.71 416.31 104.61 403.14 105.51 416.53 106.41 416.53 107.3 389.75 108.2 409.83 109.11 409.83 110 399.79 110.9 403.14 111.8 390.27 112.7 410.25 113.6 413.5 114.5 384.32 115.4 397.28 116.3 394.04 117.2 416.74 118.1 390.8 119 405.12 119.9 397.62 120.8 390.58 121.7 397.28 122.6 400.53 123.5 387.56 124.4 400.53 125.3 394.04 126.2 400.53 127.1 397.28 128 400.53 128.9 400.53 129.8 413.5 130.7 419.29 131.6 403.55 132.5 379.95 133.39 332.75 134.3 383.88 135.2 376.01 136.09 372.08 137 423.22 137.89 423.22 138.79 411.42 139.7 383.88 140.59 387.82 141.49 368.15 142.39 356.35 143.29 403.55 144.19 419.29 145.09 391.75 145.99 395.68 146.89 403.34 147.79 387.6 148.69 352.41 149.59 379.95 150.49 383.88 151.39 399.62 152.29 403.55 153.19 403.55 154.09 399.62 154.99 411.42 155.89 395.68 156.79 387.82 157.69 407.48 158.59 403.55 159.49 415.35 160.39 411.42 162.19 411.42 163.09 415.35 163.98 419.29 164.89 415.35 165.79 415.35 166.68 379.95 167.59 419.29 168.48 419.29 169.38 423.01 170.29 415.35 171.18 419.29 172.08 419.29 172.98 423.22 173.88 407.48 175.68 415.35 176.58 383.88 177.48 403.55 178.38 403.55 179.28 408.29 180.18 420.09 181.08 423.22 181.98 411.42 182.88 411.42 183.78 387.82 184.68 399.62 185.58 419.29 186.48 419.29 187.38 387.82 188.28 344.55 189.18 391.75 190.08 391.75 190.98 407.48 191.88 419.29 192.78 423.22 193.68 419.29 194.57 415.35 197.27 415.35 198.17 395.68 199.07 395.68 199.97 399.62 200.87 419.29 201.77 403.55 202.67 387.82 203.57 403.34 204.47 419.07 205.37 391.75 206.27 395.68 207.17 383.88 208.07 399.62 208.97 391.75 209.87 411.42 210.77 395.68 211.67 418.87 212.57 415.35 213.47 387.82 214.37 395.68 215.27 352.41 216.17 403.55 217.07 407.48 217.96 366.95 218.87 390.55 219.77 391.13 220.66 375.39 221.57 395.68 222.46 383.32 223.36 395.25 224.27 415.23 225.16 391.25 226.06 407.24 226.96 391.25 227.86 383.26 228.76 403.24 229.66 395.25 230.56 375.27 231.46 367.28 232.36 363.07 233.26 395.03 234.16 395.25 235.06 395.25 235.96 375.27 236.86 411.23 237.76 407.24 238.66 399.25 239.56 419.23 240.46 403.24 241.36 391.25 242.26 379.26 243.16 411.23 244.06 419.23 244.96 423.22 245.86 419.23 246.76 399.25 247.66 391.25 248.55 403.24 250.36 403.24 251.25 375.27 252.16 411.23 253.05 407.24 253.95 407.24 254.86 419.23 255.75 403.24 256.65 383.26 257.55 383.26 258.45 399.25 259.35 394.47 260.25 414.84 261.15 419.03 262.05 410.65 262.95 406.46 263.85 419.03 264.75 410.65 265.65 410.65 266.55 419.03 267.45 423.22 268.35 414.84 269.25 414.84 270.15 419.03 271.05 385.51 271.95 406.46 272.85 406.46 273.75 393.89 274.65 410.65 275.55 402.27 276.45 419.03 277.35 414.77 278.25 419 279.14 402.09 280.05 397.87 280.95 389.42 281.84 410.54 282.75 410.54 283.64 423.22 284.54 414.77 285.44 402.09 286.34 415.55 287.24 423.22 289.04 423.22 289.94 397.87 290.84 414.14 291.74 401.47 292.64 393.64 293.54 372.51 294.44 368.29 295.34 414.77 296.24 419 297.14 414.77 298.04 409.53 298.94 385.19 299.84 338.71 300.74 385.19 301.64 359.84 302.54 351.39 303.44 372.51 304.34 397.87 305.24 380.96 306.14 402.09 307.04 389.42 307.93 393.64 308.84 423.22 309.73 414.77 310.63 419 311.54 406.32 312.43 385.19 313.33 380.96 314.23 338.71 315.13 347.16 316.03 406.32 316.93 414.77 317.83 418.78 318.73 414.55 319.63 423.22 320.53 423.22 321.43 412.08 322.33 423.22 323.23 423.22 324.13 419.51 325.03 412.08 325.93 419.51 326.83 415.79 327.73 419.51 328.63 423.22 329.53 423.22 330.43 415.79 331.33 419.51 332.23 415.58 333.13 423.22 334.03 423.22 334.93 397.22 335.82 393.5 336.73 400.93 337.63 407.74 338.52 415.79 339.43 412.08 341.22 419.51 342.13 423.22 343.02 397.8 343.92 401.43 344.82 408.69 345.72 365.12 346.62 365.12 347.52 390.54 348.42 401.43 349.32 408.69 350.22 419.59 351.12 405.07 352.02 386.91 352.92 405.07 353.82 401.43 354.72 397.8 355.62 415.96 356.52 412.33 357.42 397.8 358.32 401.43 359.22 408.69 360.12 412.33 361.02 419.59 362.82 419.59 363.71 397.8 364.62 405.07 365.52 415.96 366.41 411.7 367.32 404.44 368.21 408.69 369.11 412.33 370.02 397.8 370.91 397.8 371.81 395.03 372.71 386.91 373.61 376.01 374.51 408.69 375.41 412.33 376.31 412.33 377.21 419.59 378.11 423.22 379.01 415.96 379.91 423.22 380.81 423.22 381.71 405.07 382.61 401.43 383.51 394.17 384.41 401.43 385.31 386.91 386.21 386.91 387.11 365.12 388.01 415.96 388.91 419.59 389.81 415.96 390.71 415.96 391.61 397.8 392.51 419.59 393.41 408.69 394.3 408.69 395.2 412.33 396.11 415.96 397 401.62 397.9 390.54 398.8 415.96 399.7 408.69 400.6 379.65 401.5 383.28 402.4 415.75 403.3 419.59 404.2 412.33 405.1 408.69 406 419.59 406.9 390.54 407.8 412.33 408.7 390.54 409.6 372.39 410.5 412.33 411.4 412.33 412.3 408.69 413.2 390.54 414.1 357.86 415 368.75 415.9 385.53 416.8 381.9 417.7 368.75 418.6 405.07 419.5 415.96 420.39 405.07 421.3 397.8 422.2 415.96 423.09 423.22 424 390.54 424.89 379.65 426.7 379.65"/></g><text class="uuid-e668d5ec-1c63-456d-a037-49b691b3461c" transform="translate(51.04 376.75) rotate(-90)"><tspan x="0" y="0">p</tspan></text><text class="uuid-456f5b5b-46bc-4066-97e7-6b6950d51364" transform="translate(51.04 372) rotate(-90)"><tspan x="0" y="0" xml:space="preserve"> (10</tspan></text><text class="uuid-456f5b5b-46bc-4066-97e7-6b6950d51364" transform="translate(48.41 358.35) rotate(-90) scale(.58)"><tspan x="0" y="0">-4</tspan></text><text class="uuid-456f5b5b-46bc-4066-97e7-6b6950d51364" transform="translate(51.04 354.25) rotate(-90)"><tspan x="0" y="0">)</tspan></text><line class="uuid-2b134ebf-d51f-4013-ab6e-0212787a4f53" x1="68.62" y1="428.06" x2="426.7" y2="428.06"/><line class="uuid-2b134ebf-d51f-4013-ab6e-0212787a4f53" x1="91.86" y1="428.06" x2="91.86" y2="432.81"/><line class="uuid-2b134ebf-d51f-4013-ab6e-0212787a4f53" x1="115.85" y1="428.06" x2="115.85" y2="432.81"/><line class="uuid-2b134ebf-d51f-4013-ab6e-0212787a4f53" x1="139.84" y1="428.06" x2="139.84" y2="432.81"/><line class="uuid-2b134ebf-d51f-4013-ab6e-0212787a4f53" x1="163.84" y1="428.06" x2="163.84" y2="432.81"/><line class="uuid-2b134ebf-d51f-4013-ab6e-0212787a4f53" x1="187.83" y1="428.06" x2="187.83" y2="432.81"/><line class="uuid-2b134ebf-d51f-4013-ab6e-0212787a4f53" x1="211.82" y1="428.06" x2="211.82" y2="432.81"/><line class="uuid-2b134ebf-d51f-4013-ab6e-0212787a4f53" x1="235.81" y1="428.06" x2="235.81" y2="432.81"/><line class="uuid-2b134ebf-d51f-4013-ab6e-0212787a4f53" x1="259.8" y1="428.06" x2="259.8" y2="432.81"/><line class="uuid-2b134ebf-d51f-4013-ab6e-0212787a4f53" x1="283.79" y1="428.06" x2="283.79" y2="432.81"/><line class="uuid-2b134ebf-d51f-4013-ab6e-0212787a4f53" x1="307.79" y1="428.06" x2="307.79" y2="432.81"/><line class="uuid-2b134ebf-d51f-4013-ab6e-0212787a4f53" x1="331.78" y1="428.06" x2="331.78" y2="432.81"/><line class="uuid-2b134ebf-d51f-4013-ab6e-0212787a4f53" x1="355.77" y1="428.06" x2="355.77" y2="432.81"/><line class="uuid-2b134ebf-d51f-4013-ab6e-0212787a4f53" x1="379.76" y1="428.06" x2="379.76" y2="432.81"/><line class="uuid-2b134ebf-d51f-4013-ab6e-0212787a4f53" x1="403.75" y1="428.06" x2="403.75" y2="432.81"/><line class="uuid-2b134ebf-d51f-4013-ab6e-0212787a4f53" x1="68.62" y1="423.22" x2="68.62" y2="297.34"/><line class="uuid-2b134ebf-d51f-4013-ab6e-0212787a4f53" x1="68.62" y1="423.22" x2="63.87" y2="423.22"/><line class="uuid-2b134ebf-d51f-4013-ab6e-0212787a4f53" x1="68.62" y1="405.93" x2="63.87" y2="405.93"/><line class="uuid-2b134ebf-d51f-4013-ab6e-0212787a4f53" x1="68.62" y1="388.64" x2="63.87" y2="388.64"/><line class="uuid-2b134ebf-d51f-4013-ab6e-0212787a4f53" x1="68.62" y1="371.35" x2="63.87" y2="371.35"/><line class="uuid-2b134ebf-d51f-4013-ab6e-0212787a4f53" x1="68.62" y1="354.06" x2="63.87" y2="354.06"/><line class="uuid-2b134ebf-d51f-4013-ab6e-0212787a4f53" x1="68.62" y1="336.77" x2="63.87" y2="336.77"/><line class="uuid-2b134ebf-d51f-4013-ab6e-0212787a4f53" x1="68.62" y1="319.48" x2="63.87" y2="319.48"/><line class="uuid-2b134ebf-d51f-4013-ab6e-0212787a4f53" x1="68.62" y1="302.19" x2="63.87" y2="302.19"/><text class="uuid-456f5b5b-46bc-4066-97e7-6b6950d51364" transform="translate(56.13 426.05)"><tspan x="0" y="0">0</tspan></text><text class="uuid-456f5b5b-46bc-4066-97e7-6b6950d51364" transform="translate(56.13 408.76)"><tspan x="0" y="0">2</tspan></text><text class="uuid-456f5b5b-46bc-4066-97e7-6b6950d51364" transform="translate(56.13 391.47)"><tspan x="0" y="0">4</tspan></text><text class="uuid-456f5b5b-46bc-4066-97e7-6b6950d51364" transform="translate(56.13 374.18)"><tspan x="0" y="0">6</tspan></text><text class="uuid-456f5b5b-46bc-4066-97e7-6b6950d51364" transform="translate(56.13 356.89)"><tspan x="0" y="0">8</tspan></text><text class="uuid-456f5b5b-46bc-4066-97e7-6b6950d51364" transform="translate(51.73 339.6)"><tspan x="0" y="0">10</tspan></text><text class="uuid-456f5b5b-46bc-4066-97e7-6b6950d51364" transform="translate(51.73 322.31)"><tspan x="0" y="0">12</tspan></text><text class="uuid-456f5b5b-46bc-4066-97e7-6b6950d51364" transform="translate(51.73 305.02)"><tspan x="0" y="0">14</tspan></text><rect class="uuid-cac8c383-8332-48a9-acd4-3dd706da56a0" x="74.42" y="419.37" width="1" height="1"/><rect class="uuid-cac8c383-8332-48a9-acd4-3dd706da56a0" x="76.21" y="419.37" width="1" height="1"/><rect class="uuid-cac8c383-8332-48a9-acd4-3dd706da56a0" x="79.82" y="419.37" width="1" height="1"/><rect class="uuid-cac8c383-8332-48a9-acd4-3dd706da56a0" x="87.01" y="419.37" width="1" height="1"/><rect class="uuid-cac8c383-8332-48a9-acd4-3dd706da56a0" x="89.71" y="419.37" width="1" height="1"/><rect class="uuid-cac8c383-8332-48a9-acd4-3dd706da56a0" x="93.31" y="419.37" width="1" height="1"/><rect class="uuid-cac8c383-8332-48a9-acd4-3dd706da56a0" x="102.31" y="419.16" width="1" height="1"/><rect class="uuid-cac8c383-8332-48a9-acd4-3dd706da56a0" x="130.2" y="418.79" width="1" height="1"/><line class="uuid-ad834ac0-5ab2-4f72-b03a-82347ea32877" x1="137" y1="423.22" x2="137.89" y2="423.22"/><rect class="uuid-cac8c383-8332-48a9-acd4-3dd706da56a0" x="143.69" y="418.79" width="1" height="1"/><rect class="uuid-cac8c383-8332-48a9-acd4-3dd706da56a0" x="163.48" y="418.79" width="1" height="1"/><polyline class="uuid-ad834ac0-5ab2-4f72-b03a-82347ea32877" points="167.59 419.29 168.48 419.29 169.38 423.01"/><polyline class="uuid-ad834ac0-5ab2-4f72-b03a-82347ea32877" points="171.18 419.29 172.08 419.29 172.98 423.22"/><line class="uuid-ad834ac0-5ab2-4f72-b03a-82347ea32877" x1="180.18" y1="420.09" x2="181.08" y2="423.22"/><line class="uuid-ad834ac0-5ab2-4f72-b03a-82347ea32877" x1="185.58" y1="419.29" x2="186.48" y2="419.29"/><polyline class="uuid-ad834ac0-5ab2-4f72-b03a-82347ea32877" points="191.88 419.29 192.78 423.22 193.68 419.29"/><rect class="uuid-cac8c383-8332-48a9-acd4-3dd706da56a0" x="200.37" y="418.79" width="1" height="1"/><rect class="uuid-cac8c383-8332-48a9-acd4-3dd706da56a0" x="203.97" y="418.57" width="1" height="1"/><rect class="uuid-cac8c383-8332-48a9-acd4-3dd706da56a0" x="239.06" y="418.73" width="1" height="1"/><polyline class="uuid-ad834ac0-5ab2-4f72-b03a-82347ea32877" points="244.06 419.23 244.96 423.22 245.86 419.23"/><rect class="uuid-cac8c383-8332-48a9-acd4-3dd706da56a0" x="254.36" y="418.73" width="1" height="1"/><rect class="uuid-cac8c383-8332-48a9-acd4-3dd706da56a0" x="260.65" y="418.53" width="1" height="1"/><rect class="uuid-cac8c383-8332-48a9-acd4-3dd706da56a0" x="263.35" y="418.53" width="1" height="1"/><line class="uuid-ad834ac0-5ab2-4f72-b03a-82347ea32877" x1="266.55" y1="419.03" x2="267.45" y2="423.22"/><rect class="uuid-cac8c383-8332-48a9-acd4-3dd706da56a0" x="269.65" y="418.53" width="1" height="1"/><rect class="uuid-cac8c383-8332-48a9-acd4-3dd706da56a0" x="275.95" y="418.53" width="1" height="1"/><rect class="uuid-cac8c383-8332-48a9-acd4-3dd706da56a0" x="283.14" y="422.72" width="1" height="1"/><line class="uuid-ad834ac0-5ab2-4f72-b03a-82347ea32877" x1="287.24" y1="423.22" x2="289.04" y2="423.22"/><rect class="uuid-cac8c383-8332-48a9-acd4-3dd706da56a0" x="308.34" y="422.72" width="1" height="1"/><line class="uuid-ad834ac0-5ab2-4f72-b03a-82347ea32877" x1="319.63" y1="423.22" x2="320.53" y2="423.22"/><polyline class="uuid-ad834ac0-5ab2-4f72-b03a-82347ea32877" points="322.33 423.22 323.23 423.22 324.13 419.51"/><rect class="uuid-cac8c383-8332-48a9-acd4-3dd706da56a0" x="325.43" y="419.01" width="1" height="1"/><polyline class="uuid-ad834ac0-5ab2-4f72-b03a-82347ea32877" points="327.73 419.51 328.63 423.22 329.53 423.22"/><rect class="uuid-cac8c383-8332-48a9-acd4-3dd706da56a0" x="330.83" y="419.01" width="1" height="1"/><line class="uuid-ad834ac0-5ab2-4f72-b03a-82347ea32877" x1="333.13" y1="423.22" x2="334.03" y2="423.22"/><line class="uuid-ad834ac0-5ab2-4f72-b03a-82347ea32877" x1="341.22" y1="419.51" x2="342.13" y2="423.22"/><rect class="uuid-cac8c383-8332-48a9-acd4-3dd706da56a0" x="349.72" y="419.09" width="1" height="1"/><line class="uuid-ad834ac0-5ab2-4f72-b03a-82347ea32877" x1="361.02" y1="419.59" x2="362.82" y2="419.59"/><line class="uuid-ad834ac0-5ab2-4f72-b03a-82347ea32877" x1="377.21" y1="419.59" x2="378.11" y2="423.22"/><line class="uuid-ad834ac0-5ab2-4f72-b03a-82347ea32877" x1="379.91" y1="423.22" x2="380.81" y2="423.22"/><rect class="uuid-cac8c383-8332-48a9-acd4-3dd706da56a0" x="388.41" y="419.09" width="1" height="1"/><rect class="uuid-cac8c383-8332-48a9-acd4-3dd706da56a0" x="392.01" y="419.09" width="1" height="1"/><rect class="uuid-cac8c383-8332-48a9-acd4-3dd706da56a0" x="402.8" y="419.09" width="1" height="1"/><rect class="uuid-cac8c383-8332-48a9-acd4-3dd706da56a0" x="405.5" y="419.09" width="1" height="1"/><rect class="uuid-cac8c383-8332-48a9-acd4-3dd706da56a0" x="422.59" y="422.72" width="1" height="1"/><g class="uuid-c1d9f7e9-672a-4b3e-86ce-b77af966e590"><line class="uuid-e8934426-d7fe-45db-acf4-816f1a87f327" x1="67.87" y1="407.99" x2="427.74" y2="407.99"/></g><g class="uuid-5676c29f-2020-4730-9256-9a1c349da0c8"><line class="uuid-49d61758-603b-480e-ba99-0ac677404281" x1="67.87" y1="418.97" x2="427.74" y2="418.97"/></g><g class="uuid-f1a1784f-c8cf-4d40-941d-315e86c8c176"><rect class="uuid-70c311e7-52d8-43e0-92f0-a4abf4b88080" x="327.48" y="298.86" width="107.6" height="28.51"/><text class="uuid-c03f3726-3caf-4cfd-849f-0e1ef41235a9" transform="translate(334.61 310.8)"><tspan x="0" y="0">mean </tspan></text><text class="uuid-62aef2d7-2d06-4d2a-a6d8-873348a36240" transform="translate(356.61 310.8)"><tspan x="0" y="0">p</tspan></text><text class="uuid-c03f3726-3caf-4cfd-849f-0e1ef41235a9" transform="translate(334.61 320.67)"><tspan x="0" y="0">1.76</tspan></text><text class="uuid-6dee1960-5528-477d-9fb2-9bb136fd6837" transform="translate(379.76 312.05)"><tspan x="0" y="0">145 troughs</tspan></text></g><g class="uuid-2934ea9e-a5a7-4cce-9506-ee1ad6a12beb"><polyline class="uuid-2b134ebf-d51f-4013-ab6e-0212787a4f53" points="68.62 565.34 73.12 565.34 74.02 563.96 74.92 565.34 84.81 565.34 85.71 565.13 86.61 565.13 87.51 565.34 96.51 565.34 97.41 563.34 98.31 565.34 100.11 565.34 101.01 563.62 101.91 565.34 114.5 565.34 115.4 563.29 116.3 565.34 118.1 565.34 119 563.29 119.9 563.29 120.8 565.34 126.2 565.34 127.1 562 128 565.34 130.7 565.34 131.6 564.92 132.5 565.34 134.3 565.34 135.2 565.13 136.09 565.34 137 563.14 137.89 563.14 138.79 565.34 143.29 565.34 144.19 563.62 145.09 565.34 156.79 565.34 157.69 562 158.59 565.34 194.57 565.34 195.48 561.02 196.38 561.02 197.27 565.34 220.66 565.34 221.57 565.13 222.46 565.13 223.36 565.34 227.86 565.34 228.76 563.96 229.66 565.13 230.56 565.13 231.46 565.34 243.16 565.34 244.06 564.92 244.96 564.92 245.86 565.34 255.75 565.34 256.65 562.33 257.55 565.34 259.35 565.34 260.25 564.92 261.15 565.34 269.25 565.34 270.15 562.33 271.05 538.21 271.95 553.28 272.85 553.28 273.75 544.24 274.65 554.57 275.55 548.54 276.45 562.33 277.35 559.31 278.25 562.33 279.14 550.26 280.05 547.25 280.95 541.22 281.84 556.3 282.75 556.3 283.64 565.34 284.54 559.31 285.44 550.26 286.34 559.31 287.24 565.34 289.04 565.34 289.94 540.44 290.84 557.04 291.74 544.59 292.64 536.29 293.54 515.55 294.44 511.39 295.34 557.04 296.24 561.19 297.14 557.04 298.04 552.89 298.94 528 299.84 482.35 300.74 528 301.64 503.1 302.54 494.8 303.44 515.55 304.34 540.44 305.24 523.84 306.14 544.59 307.04 532.14 307.93 536.08 308.84 565.34 309.73 557.04 310.63 561.19 311.54 548.74 312.43 528 313.33 523.42 314.23 480.62 315.13 488.92 316.03 548.74 316.93 557.04 317.83 561.19 318.73 557.04 319.63 565.34 320.53 565.34 321.43 552.89 322.33 565.34 323.23 565.34 324.13 561.19 325.03 551.88 325.93 560.18 326.83 557.04 327.73 561.19 328.63 565.34 329.53 565.34 330.43 557.04 331.33 561.26 332.23 557.4 333.13 565.34 334.03 565.34 334.93 538.28 335.82 534.41 336.73 542.14 337.63 549.88 338.52 557.61 339.43 553.75 340.32 557.61 341.22 561.48 342.13 565.34 343.02 538.28 343.92 542.14 344.82 549.88 345.72 503.48 346.62 503.48 347.52 530.55 348.42 542.14 349.32 549.88 350.22 561.48 351.12 546.01 352.02 526.68 352.92 546.01 353.82 542.51 354.72 538.79 355.62 556.74 356.52 553.96 357.42 538.79 358.32 542.93 359.22 551.13 360.12 555 361.02 561.89 362.82 561.89 363.71 538.24 364.62 544.39 365.52 556.96 366.41 552.56 367.32 544.39 368.21 548.58 369.11 565.34 370.91 565.34 371.81 561.15 372.71 565.34 373.61 564.33 374.51 565.34 392.51 565.34 393.41 564.92 394.3 565.34 396.11 565.34 397 556.96 397.9 561.15 398.8 565.34 415 565.34 415.9 561.15 416.8 561.15 417.7 565.34 426.7 565.34"/></g><text class="uuid-e668d5ec-1c63-456d-a037-49b691b3461c" transform="translate(51.04 518.86) rotate(-90)"><tspan x="0" y="0">p</tspan></text><line class="uuid-2b134ebf-d51f-4013-ab6e-0212787a4f53" x1="68.62" y1="570.18" x2="426.7" y2="570.18"/><line class="uuid-2b134ebf-d51f-4013-ab6e-0212787a4f53" x1="91.86" y1="570.18" x2="91.86" y2="574.94"/><line class="uuid-2b134ebf-d51f-4013-ab6e-0212787a4f53" x1="115.85" y1="570.18" x2="115.85" y2="574.94"/><line class="uuid-2b134ebf-d51f-4013-ab6e-0212787a4f53" x1="139.84" y1="570.18" x2="139.84" y2="574.94"/><line class="uuid-2b134ebf-d51f-4013-ab6e-0212787a4f53" x1="163.84" y1="570.18" x2="163.84" y2="574.94"/><line class="uuid-2b134ebf-d51f-4013-ab6e-0212787a4f53" x1="187.83" y1="570.18" x2="187.83" y2="574.94"/><line class="uuid-2b134ebf-d51f-4013-ab6e-0212787a4f53" x1="211.82" y1="570.18" x2="211.82" y2="574.94"/><line class="uuid-2b134ebf-d51f-4013-ab6e-0212787a4f53" x1="235.81" y1="570.18" x2="235.81" y2="574.94"/><line class="uuid-2b134ebf-d51f-4013-ab6e-0212787a4f53" x1="259.8" y1="570.18" x2="259.8" y2="574.94"/><line class="uuid-2b134ebf-d51f-4013-ab6e-0212787a4f53" x1="283.79" y1="570.18" x2="283.79" y2="574.94"/><line class="uuid-2b134ebf-d51f-4013-ab6e-0212787a4f53" x1="307.79" y1="570.18" x2="307.79" y2="574.94"/><line class="uuid-2b134ebf-d51f-4013-ab6e-0212787a4f53" x1="331.78" y1="570.18" x2="331.78" y2="574.94"/><line class="uuid-2b134ebf-d51f-4013-ab6e-0212787a4f53" x1="355.77" y1="570.18" x2="355.77" y2="574.94"/><line class="uuid-2b134ebf-d51f-4013-ab6e-0212787a4f53" x1="379.76" y1="570.18" x2="379.76" y2="574.94"/><line class="uuid-2b134ebf-d51f-4013-ab6e-0212787a4f53" x1="403.75" y1="570.18" x2="403.75" y2="574.94"/><text class="uuid-456f5b5b-46bc-4066-97e7-6b6950d51364" transform="translate(86.36 585.87)"><tspan x="0" y="0">7.</tspan><tspan class="uuid-6c3cae4f-9b71-4697-b92f-b026574fe705" x="6.6" y="0">2</tspan><tspan x="23.98" y="0">7.</tspan><tspan class="uuid-6c3cae4f-9b71-4697-b92f-b026574fe705" x="30.59" y="0">4</tspan><tspan x="47.97" y="0">7.</tspan><tspan class="uuid-0b20ed49-8da6-4c3c-b5ff-3f47649b1fce" x="54.57" y="0">6</tspan><tspan x="71.96" y="0">7.</tspan><tspan class="uuid-26833e2d-1fc3-4900-8435-364a6ac104ca" x="78.56" y="0">8</tspan><tspan class="uuid-0b939438-459f-4380-a884-a58235f7f40b" x="99.23" y="0">8</tspan><tspan x="119.92" y="0">8.2</tspan></text><text class="uuid-456f5b5b-46bc-4066-97e7-6b6950d51364" transform="translate(230.31 585.87)"><tspan x="0" y="0">8.</tspan><tspan class="uuid-b6c00a44-6eb3-44bd-b1a9-c6eccb33e35b" x="6.61" y="0">4</tspan><tspan class="uuid-c0f5e4ed-210c-4de2-8a3f-edb007e9c808" x="23.98" y="0">8.</tspan><tspan class="uuid-83dd7acf-bdb6-48a1-8431-c7af36689def" x="30.59" y="0">6</tspan><tspan x="47.97" y="0">8.</tspan><tspan class="uuid-898a5ef3-ce62-482d-aaed-1db51fa560e0" x="54.57" y="0">8</tspan><tspan class="uuid-0206c3ba-ad2e-4d6c-b071-19539d62f522" x="75.25" y="0">9</tspan><tspan x="95.94" y="0">9.</tspan><tspan class="uuid-b6c00a44-6eb3-44bd-b1a9-c6eccb33e35b" x="102.54" y="0">2</tspan><tspan class="uuid-c0f5e4ed-210c-4de2-8a3f-edb007e9c808" x="119.92" y="0">9.4</tspan></text><text class="uuid-456f5b5b-46bc-4066-97e7-6b6950d51364" transform="translate(374.26 585.87)"><tspan x="0" y="0">9.</tspan><tspan class="uuid-b6c00a44-6eb3-44bd-b1a9-c6eccb33e35b" x="6.61" y="0">6</tspan><tspan class="uuid-c0f5e4ed-210c-4de2-8a3f-edb007e9c808" x="23.98" y="0">9.8</tspan></text><line class="uuid-2b134ebf-d51f-4013-ab6e-0212787a4f53" x1="68.62" y1="565.34" x2="68.62" y2="439.47"/><line class="uuid-2b134ebf-d51f-4013-ab6e-0212787a4f53" x1="68.62" y1="565.34" x2="63.87" y2="565.34"/><line class="uuid-2b134ebf-d51f-4013-ab6e-0212787a4f53" x1="68.62" y1="548.05" x2="63.87" y2="548.05"/><line class="uuid-2b134ebf-d51f-4013-ab6e-0212787a4f53" x1="68.62" y1="530.76" x2="63.87" y2="530.76"/><line class="uuid-2b134ebf-d51f-4013-ab6e-0212787a4f53" x1="68.62" y1="513.47" x2="63.87" y2="513.47"/><line class="uuid-2b134ebf-d51f-4013-ab6e-0212787a4f53" x1="68.62" y1="496.18" x2="63.87" y2="496.18"/><line class="uuid-2b134ebf-d51f-4013-ab6e-0212787a4f53" x1="68.62" y1="478.89" x2="63.87" y2="478.89"/><line class="uuid-2b134ebf-d51f-4013-ab6e-0212787a4f53" x1="68.62" y1="461.6" x2="63.87" y2="461.6"/><line class="uuid-2b134ebf-d51f-4013-ab6e-0212787a4f53" x1="68.62" y1="444.31" x2="63.87" y2="444.31"/><text class="uuid-456f5b5b-46bc-4066-97e7-6b6950d51364" transform="translate(56.13 568.17)"><tspan x="0" y="0">0</tspan></text><text class="uuid-456f5b5b-46bc-4066-97e7-6b6950d51364" transform="translate(56.13 550.89)"><tspan x="0" y="0">2</tspan></text><text class="uuid-456f5b5b-46bc-4066-97e7-6b6950d51364" transform="translate(56.13 533.6)"><tspan x="0" y="0">4</tspan></text><text class="uuid-456f5b5b-46bc-4066-97e7-6b6950d51364" transform="translate(56.13 516.3)"><tspan x="0" y="0">6</tspan></text><text class="uuid-456f5b5b-46bc-4066-97e7-6b6950d51364" transform="translate(56.13 499.01)"><tspan x="0" y="0">8</tspan></text><text class="uuid-456f5b5b-46bc-4066-97e7-6b6950d51364" transform="translate(51.73 481.72)"><tspan x="0" y="0">10</tspan></text><text class="uuid-456f5b5b-46bc-4066-97e7-6b6950d51364" transform="translate(51.73 464.43)"><tspan x="0" y="0">12</tspan></text><text class="uuid-456f5b5b-46bc-4066-97e7-6b6950d51364" transform="translate(51.73 447.14)"><tspan x="0" y="0">14</tspan></text><g class="uuid-67bc194a-14fc-484a-bed0-486605d31c22"><polyline class="uuid-ad834ac0-5ab2-4f72-b03a-82347ea32877" points="-98.72 565.34 -88.83 565.34 -87.93 563.62 -87.03 565.34 -86.13 565.13 -85.23 565.34 -78.93 565.34 -78.03 564.92 -77.13 565.34 -66.34 565.34 -65.43 564.92 -64.54 565.34 -63.64 565.34 -62.73 564.92 -61.84 564.92 -60.94 565.34 -37.54 565.34 -36.64 565.13 -35.75 565.34 -34.84 564.14 -33.95 563.93 -33.05 565.34 -3.36 565.34 -2.46 563.96 -1.56 565.34 -.66 565.34 .24 565.13 1.14 565.34 10.14 565.34 11.04 565.13 11.94 565.13 12.84 565.34 24.54 565.34 25.43 564.92 26.33 565.34 41.63 565.34 42.53 563.96 43.43 563.96 44.33 565.34 64.12 565.34 65.02 563.96 65.92 565.34 66.82 563.96 67.72 565.34 73.12 565.34 74.02 563.96 74.92 565.34 84.81 565.34 85.71 565.13 86.61 565.13 87.51 565.34 96.51 565.34 97.41 563.34 98.31 565.34 100.11 565.34 101.01 563.62 101.91 565.34 114.5 565.34 115.4 563.29 116.3 565.34 118.1 565.34 119 563.29 119.9 563.29 120.8 565.34 126.2 565.34 127.1 562 128 565.34 130.7 565.34 131.6 564.92 132.5 565.34 134.3 565.34 135.2 565.13 136.09 565.34 137 563.14 137.89 563.14 138.79 565.34 143.29 565.34 144.19 563.62 145.09 565.34 156.79 565.34 157.69 562 158.59 565.34 194.57 565.34"/></g><polyline class="uuid-ad834ac0-5ab2-4f72-b03a-82347ea32877" points="197.27 565.34 220.66 565.34 221.57 565.13 222.46 565.13 223.36 565.34 227.86 565.34 228.76 563.96 229.66 565.13 230.56 565.13 231.46 565.34 243.16 565.34 244.06 564.92 244.96 564.92 245.86 565.34 255.75 565.34 256.65 562.33 257.55 565.34 259.35 565.34 260.25 564.92 261.15 565.34 269.25 565.34 270.15 562.33"/><rect class="uuid-cac8c383-8332-48a9-acd4-3dd706da56a0" x="275.95" y="561.83" width="1" height="1"/><rect class="uuid-cac8c383-8332-48a9-acd4-3dd706da56a0" x="277.75" y="561.83" width="1" height="1"/><rect class="uuid-cac8c383-8332-48a9-acd4-3dd706da56a0" x="283.14" y="564.84" width="1" height="1"/><line class="uuid-ad834ac0-5ab2-4f72-b03a-82347ea32877" x1="287.24" y1="565.34" x2="289.04" y2="565.34"/><rect class="uuid-cac8c383-8332-48a9-acd4-3dd706da56a0" x="295.74" y="560.69" width="1" height="1"/><rect class="uuid-cac8c383-8332-48a9-acd4-3dd706da56a0" x="308.34" y="564.84" width="1" height="1"/><rect class="uuid-cac8c383-8332-48a9-acd4-3dd706da56a0" x="310.13" y="560.69" width="1" height="1"/><rect class="uuid-cac8c383-8332-48a9-acd4-3dd706da56a0" x="317.33" y="560.69" width="1" height="1"/><line class="uuid-ad834ac0-5ab2-4f72-b03a-82347ea32877" x1="319.63" y1="565.34" x2="320.53" y2="565.34"/><polyline class="uuid-ad834ac0-5ab2-4f72-b03a-82347ea32877" points="322.33 565.34 323.23 565.34 324.13 561.19"/><polyline class="uuid-ad834ac0-5ab2-4f72-b03a-82347ea32877" points="327.73 561.19 328.63 565.34 329.53 565.34"/><rect class="uuid-cac8c383-8332-48a9-acd4-3dd706da56a0" x="330.83" y="560.76" width="1" height="1"/><line class="uuid-ad834ac0-5ab2-4f72-b03a-82347ea32877" x1="333.13" y1="565.34" x2="334.03" y2="565.34"/><line class="uuid-ad834ac0-5ab2-4f72-b03a-82347ea32877" x1="341.22" y1="561.48" x2="342.13" y2="565.34"/><rect class="uuid-cac8c383-8332-48a9-acd4-3dd706da56a0" x="349.72" y="560.98" width="1" height="1"/><line class="uuid-ad834ac0-5ab2-4f72-b03a-82347ea32877" x1="361.02" y1="561.89" x2="362.82" y2="561.89"/><polyline class="uuid-ad834ac0-5ab2-4f72-b03a-82347ea32877" points="369.11 565.34 370.91 565.34 371.81 561.15 372.71 565.34 373.61 564.33 374.51 565.34 392.51 565.34 393.41 564.92 394.3 565.34 396.11 565.34"/><g class="uuid-0b7b7b8a-af8b-4c02-821f-6214767ca6e3"><polyline class="uuid-ad834ac0-5ab2-4f72-b03a-82347ea32877" points="397.9 561.15 398.8 565.34 415 565.34 415.9 561.15 416.8 561.15 417.7 565.34 427.59 565.34"/></g><g class="uuid-5dc3fbb7-a5d3-4d57-ac3c-620662ed0474"><line class="uuid-e8934426-d7fe-45db-acf4-816f1a87f327" x1="67.87" y1="563.66" x2="427.74" y2="563.66"/></g><g class="uuid-61550474-ef4b-40d9-9b10-1c46eb11b529"><line class="uuid-49d61758-603b-480e-ba99-0ac677404281" x1="67.87" y1="561.09" x2="427.74" y2="561.09"/></g><g class="uuid-90895e96-7b5c-456d-bdbd-21468126b86b"><rect class="uuid-70c311e7-52d8-43e0-92f0-a4abf4b88080" x="327.9" y="439.47" width="98.79" height="28.51"/><text class="uuid-c03f3726-3caf-4cfd-849f-0e1ef41235a9" transform="translate(335.03 451.4)"><tspan x="0" y="0">mean </tspan></text><text class="uuid-62aef2d7-2d06-4d2a-a6d8-873348a36240" transform="translate(357.03 451.4)"><tspan x="0" y="0">p</tspan></text><text class="uuid-c03f3726-3caf-4cfd-849f-0e1ef41235a9" transform="translate(335.03 461.27)"><tspan x="0" y="0">0.195</tspan></text><text class="uuid-6dee1960-5528-477d-9fb2-9bb136fd6837" transform="translate(379.76 452.65)"><tspan x="0" y="0">30 troughs</tspan></text></g><text class="uuid-9929af95-8c82-40fa-997f-bff691ed322e" transform="translate(89.71 17.94)"><tspan x="0" y="0">Neutral (s = 0, rec = 1e-8)</tspan></text><text class="uuid-894a4b5b-4f0b-4a2e-888b-4e3a2cacf443" transform="translate(36.2 232.16) rotate(-90)"><tspan class="uuid-dd3ca31d-37d4-4e68-8239-f158ee8f5dab" x="0" y="0">00</tspan><tspan class="uuid-b8f82b19-8f65-4e06-8619-2ee6ea2499b6" x="15.57" y="0">5</tspan></text><text class="uuid-80711258-e823-44d5-a9b6-8fd13a6be43f" transform="translate(36.2 372.7) rotate(-90)"><tspan x="0" y="0">100</tspan></text><text class="uuid-80711258-e823-44d5-a9b6-8fd13a6be43f" transform="translate(35.94 512.23) rotate(-90)"><tspan x="0" y="0">200</tspan></text><text class="uuid-9929af95-8c82-40fa-997f-bff691ed322e" transform="translate(18 349.84) rotate(-90)"><tspan class="uuid-eccee597-8fe9-4fbe-b94f-17bf9a050c55" x="0" y="0">T</tspan><tspan x="9.49" y="0">ime (generations)</tspan></text><text class="uuid-894a4b5b-4f0b-4a2e-888b-4e3a2cacf443" transform="translate(35.94 88.45) rotate(-90)"><tspan class="uuid-dd3ca31d-37d4-4e68-8239-f158ee8f5dab" x="0" y="0">0 </tspan><tspan class="uuid-b8f82b19-8f65-4e06-8619-2ee6ea2499b6" x="11.68" y="0">-1</tspan></text><text class="uuid-456f5b5b-46bc-4066-97e7-6b6950d51364" transform="translate(52.71 514.81) rotate(-90)"><tspan x="0" y="0" xml:space="preserve"> (10</tspan></text><text class="uuid-456f5b5b-46bc-4066-97e7-6b6950d51364" transform="translate(50.07 501.16) rotate(-90) scale(.58)"><tspan x="0" y="0">-4</tspan></text><text class="uuid-456f5b5b-46bc-4066-97e7-6b6950d51364" transform="translate(52.71 497.06) rotate(-90)"><tspan x="0" y="0">)</tspan></text><text class="uuid-456f5b5b-46bc-4066-97e7-6b6950d51364" transform="translate(51.04 230.58) rotate(-90)"><tspan x="0" y="0" xml:space="preserve"> (10</tspan></text><text class="uuid-456f5b5b-46bc-4066-97e7-6b6950d51364" transform="translate(48.41 216.93) rotate(-90) scale(.58)"><tspan x="0" y="0">-4</tspan></text><text class="uuid-456f5b5b-46bc-4066-97e7-6b6950d51364" transform="translate(51.04 212.82) rotate(-90)"><tspan x="0" y="0">)</tspan></text><text class="uuid-456f5b5b-46bc-4066-97e7-6b6950d51364" transform="translate(52.71 88.45) rotate(-90)"><tspan x="0" y="0" xml:space="preserve"> (10</tspan></text><text class="uuid-456f5b5b-46bc-4066-97e7-6b6950d51364" transform="translate(50.07 74.81) rotate(-90) scale(.58)"><tspan x="0" y="0">-4</tspan></text><text class="uuid-456f5b5b-46bc-4066-97e7-6b6950d51364" transform="translate(52.71 70.7) rotate(-90)"><tspan x="0" y="0">)</tspan></text></svg>