<?xml version="1.0" encoding="UTF-8"?><svg id="uuid-5b2c4a00-3571-4581-b720-4da012f16606" xmlns="http://www.w3.org/2000/svg" xmlns:xlink="http://www.w3.org/1999/xlink" viewBox="0 0 532.5 198.43"><defs><style>.uuid-83f0c75c-8baf-4518-a1d1-f1f18466b4ee,.uuid-4ebda2ef-44e8-4401-b439-379417d2f303,.uuid-6e91d0c0-b532-43b5-97ea-6965fcea9aa7,.uuid-cd753fa2-9acc-4152-b18f-2513c075b4e4,.uuid-47d65147-3307-4895-93d4-1642a0e88909,.uuid-89f925ff-76e5-4a2a-a968-81a0bdb242aa,.uuid-8739b6f7-30c7-4faa-a050-e196ed42c91c,.uuid-9b1a95d2-7837-4df1-916b-ba9f7e71265c,.uuid-00917bb3-37a0-46d2-8d94-e978e77e139d,.uuid-ca4ea75b-4a8f-4cfb-9f09-289a6ea71c50,.uuid-6ac49dc6-3ebd-4912-b204-a0343c214b09,.uuid-e292b024-1f89-40e4-968d-b4035df99d83,.uuid-54f7d2a2-b958-4c42-b36a-3ba2f4ec1e92,.uuid-cb8d0e85-baa7-47e6-b58d-442b3056445f,.uuid-71f87a06-094b-4b94-8fd8-5871ee233852,.uuid-57fdb320-4944-43f7-8bbe-bed1a721f7c2{fill:none;}.uuid-83f0c75c-8baf-4518-a1d1-f1f18466b4ee,.uuid-4ebda2ef-44e8-4401-b439-379417d2f303,.uuid-6e91d0c0-b532-43b5-97ea-6965fcea9aa7,.uuid-cd753fa2-9acc-4152-b18f-2513c075b4e4,.uuid-47d65147-3307-4895-93d4-1642a0e88909,.uuid-89f925ff-76e5-4a2a-a968-81a0bdb242aa,.uuid-8739b6f7-30c7-4faa-a050-e196ed42c91c,.uuid-9b1a95d2-7837-4df1-916b-ba9f7e71265c,.uuid-00917bb3-37a0-46d2-8d94-e978e77e139d,.uuid-ca4ea75b-4a8f-4cfb-9f09-289a6ea71c50,.uuid-e292b024-1f89-40e4-968d-b4035df99d83,.uuid-54f7d2a2-b958-4c42-b36a-3ba2f4ec1e92,.uuid-cb8d0e85-baa7-47e6-b58d-442b3056445f,.uuid-71f87a06-094b-4b94-8fd8-5871ee233852,.uuid-57fdb320-4944-43f7-8bbe-bed1a721f7c2{stroke-linecap:round;stroke-linejoin:round;}.uuid-83f0c75c-8baf-4518-a1d1-f1f18466b4ee,.uuid-4ebda2ef-44e8-4401-b439-379417d2f303,.uuid-ca4ea75b-4a8f-4cfb-9f09-289a6ea71c50,.uuid-71f87a06-094b-4b94-8fd8-5871ee233852{stroke-width:.38px;}.uuid-83f0c75c-8baf-4518-a1d1-f1f18466b4ee,.uuid-89f925ff-76e5-4a2a-a968-81a0bdb242aa,.uuid-ca4ea75b-4a8f-4cfb-9f09-289a6ea71c50,.uuid-54f7d2a2-b958-4c42-b36a-3ba2f4ec1e92,.uuid-cb8d0e85-baa7-47e6-b58d-442b3056445f{opacity:.35;}.uuid-83f0c75c-8baf-4518-a1d1-f1f18466b4ee,.uuid-e292b024-1f89-40e4-968d-b4035df99d83,.uuid-cb8d0e85-baa7-47e6-b58d-442b3056445f,.uuid-57fdb320-4944-43f7-8bbe-bed1a721f7c2{stroke:#d95f02;}.uuid-93895ced-abed-4ab0-b5f9-bba0a49699b4{font-size:8px;}.uuid-93895ced-abed-4ab0-b5f9-bba0a49699b4,.uuid-6c39850a-05c5-4511-9412-41d814f60d24,.uuid-928fc652-1f2c-4c14-abc7-a75f3e2094fb,.uuid-4f6b97f9-8ea6-4853-bf8f-4d1ed3f18938{font-family:Helvetica, Helvetica;}.uuid-4ebda2ef-44e8-4401-b439-379417d2f303,.uuid-cd753fa2-9acc-4152-b18f-2513c075b4e4,.uuid-47d65147-3307-4895-93d4-1642a0e88909,.uuid-54f7d2a2-b958-4c42-b36a-3ba2f4ec1e92{stroke:#000;}.uuid-6e91d0c0-b532-43b5-97ea-6965fcea9aa7{stroke-dasharray:7.1 4.73;}.uuid-6e91d0c0-b532-43b5-97ea-6965fcea9aa7,.uuid-00917bb3-37a0-46d2-8d94-e978e77e139d{stroke:#0072a7;stroke-width:1.5px;}.uuid-47172b73-9df8-41f8-ac9b-f32bddf27255{letter-spacing:3.9em;}.uuid-cd753fa2-9acc-4152-b18f-2513c075b4e4,.uuid-9b1a95d2-7837-4df1-916b-ba9f7e71265c,.uuid-57fdb320-4944-43f7-8bbe-bed1a721f7c2{stroke-width:.75px;}.uuid-6105a976-191d-4591-957b-661c78cfc0b5,.uuid-2c04f0ac-a412-4967-8abb-ad150f7bc5e2,.uuid-d3bbe7e6-a69f-4bc5-bb03-7248ce7bb202{opacity:.1;}.uuid-6105a976-191d-4591-957b-661c78cfc0b5,.uuid-58481753-2f9b-4404-b643-e7bad4c717c1{fill:#d95f02;}.uuid-47d65147-3307-4895-93d4-1642a0e88909{stroke-dasharray:0 3.38 3.38 3.38;stroke-width:1.13px;}.uuid-89f925ff-76e5-4a2a-a968-81a0bdb242aa,.uuid-8739b6f7-30c7-4faa-a050-e196ed42c91c,.uuid-9b1a95d2-7837-4df1-916b-ba9f7e71265c,.uuid-ca4ea75b-4a8f-4cfb-9f09-289a6ea71c50{stroke:#7570b3;}.uuid-89f925ff-76e5-4a2a-a968-81a0bdb242aa,.uuid-cb8d0e85-baa7-47e6-b58d-442b3056445f{stroke-dasharray:2.81 1.88;stroke-width:.47px;}.uuid-8739b6f7-30c7-4faa-a050-e196ed42c91c,.uuid-e292b024-1f89-40e4-968d-b4035df99d83{stroke-dasharray:5.63 3.75;stroke-width:.94px;}.uuid-9b1a95d2-7837-4df1-916b-ba9f7e71265c,.uuid-57fdb320-4944-43f7-8bbe-bed1a721f7c2{opacity:.85;}.uuid-05af25c4-2e4e-489d-88ba-9203400caa82{letter-spacing:3.06em;}.uuid-ce18dd48-5dbc-4d0c-8587-431f6bdbd6d1{letter-spacing:3.34em;}.uuid-b4708626-108b-466b-ac70-61156b09b740{letter-spacing:3.07em;}.uuid-22beda82-063a-49f4-bb32-5b730fc5571f{clip-path:url(#uuid-4a616d6d-07d9-4a9b-9317-ff797a12098a);}.uuid-5b3bfcba-54c5-49db-b67d-064ff16ea552,.uuid-6c39850a-05c5-4511-9412-41d814f60d24,.uuid-4f6b97f9-8ea6-4853-bf8f-4d1ed3f18938{font-size:9px;}.uuid-5b3bfcba-54c5-49db-b67d-064ff16ea552,.uuid-6928a62b-6a32-48a2-8640-031dea450ac5,.uuid-7e1fb4ad-7399-4664-a650-ec53c3d50cfb{font-family:Helvetica-Bold, Helvetica;font-weight:700;}.uuid-6928a62b-6a32-48a2-8640-031dea450ac5{letter-spacing:-.04em;}.uuid-6928a62b-6a32-48a2-8640-031dea450ac5,.uuid-7e1fb4ad-7399-4664-a650-ec53c3d50cfb{font-size:12px;}.uuid-54f7d2a2-b958-4c42-b36a-3ba2f4ec1e92{stroke-dasharray:0 1.69 1.69 1.69;stroke-width:.56px;}.uuid-dbedfa80-75c9-4e6b-a219-d1084d66463f{letter-spacing:3.9em;}.uuid-71f87a06-094b-4b94-8fd8-5871ee233852{opacity:.5;stroke:#bebebe;}.uuid-928fc652-1f2c-4c14-abc7-a75f3e2094fb{font-size:6px;}.uuid-138b25f3-277b-4193-91eb-37c424927631{letter-spacing:0em;}.uuid-40ad4901-7123-4540-821c-ae2cb7653bb1{letter-spacing:3.34em;}.uuid-1adba9b8-54a9-4271-b4c3-c1857cd7bcfd{letter-spacing:3.07em;}.uuid-4f6b97f9-8ea6-4853-bf8f-4d1ed3f18938{letter-spacing:0em;}.uuid-3b9de1c4-cae4-44e0-bbc4-0fc15c1cab4d{clip-path:url(#uuid-054d8276-e245-4c93-a8e3-754681dc596a);}.uuid-db9d254e-c208-4356-83cb-2c4178cd3da8,.uuid-d3bbe7e6-a69f-4bc5-bb03-7248ce7bb202{fill:#7570b3;}.uuid-1bca61af-3f1a-4fe4-a2b1-15212543ad03{letter-spacing:-.02em;}.uuid-6a4f47da-985b-4e72-9b4c-2dcdb8fcd110{letter-spacing:-.02em;}.uuid-6a258a2b-3e76-4194-b7d1-768768d2f452{letter-spacing:3.07em;}.uuid-beaba17a-b6b4-4571-a9da-eedc48a7c232{letter-spacing:-.01em;}.uuid-bc5a8c12-bf80-47d6-888c-743fd2b69a7e{letter-spacing:3.07em;}</style><clipPath id="uuid-4a616d6d-07d9-4a9b-9317-ff797a12098a"><rect class="uuid-6ac49dc6-3ebd-4912-b204-a0343c214b09" x="28.15" y="7.14" width="230.08" height="166.58"/></clipPath><clipPath id="uuid-054d8276-e245-4c93-a8e3-754681dc596a"><rect class="uuid-6ac49dc6-3ebd-4912-b204-a0343c214b09" x="293.4" y="7.14" width="230.08" height="166.58"/></clipPath></defs><line class="uuid-cd753fa2-9acc-4152-b18f-2513c075b4e4" x1="28.15" y1="167.55" x2="28.15" y2="27.05"/><line class="uuid-cd753fa2-9acc-4152-b18f-2513c075b4e4" x1="28.15" y1="167.55" x2="23.4" y2="167.55"/><line class="uuid-cd753fa2-9acc-4152-b18f-2513c075b4e4" x1="28.15" y1="120.72" x2="23.4" y2="120.72"/><line class="uuid-cd753fa2-9acc-4152-b18f-2513c075b4e4" x1="28.15" y1="73.88" x2="23.4" y2="73.88"/><line class="uuid-cd753fa2-9acc-4152-b18f-2513c075b4e4" x1="28.15" y1="27.05" x2="23.4" y2="27.05"/><text class="uuid-928fc652-1f2c-4c14-abc7-a75f3e2094fb" transform="translate(17.69 169.7)"><tspan x="0" y="0">0</tspan></text><text class="uuid-928fc652-1f2c-4c14-abc7-a75f3e2094fb" transform="translate(17.69 122.87)"><tspan x="0" y="0">5</tspan></text><text class="uuid-928fc652-1f2c-4c14-abc7-a75f3e2094fb" transform="translate(14.34 76.04)"><tspan x="0" y="0">10</tspan></text><text class="uuid-928fc652-1f2c-4c14-abc7-a75f3e2094fb" transform="translate(14.34 29.2)"><tspan x="0" y="0">15</tspan></text><text class="uuid-93895ced-abed-4ab0-b5f9-bba0a49699b4" transform="translate(9.62 113.1) rotate(-90)"><tspan x="0" y="0">trough density (Mb)</tspan></text><text class="uuid-93895ced-abed-4ab0-b5f9-bba0a49699b4" transform="translate(111.67 195.58)"><tspan x="0" y="0">Time (gene</tspan><tspan class="uuid-beaba17a-b6b4-4571-a9da-eedc48a7c232" x="40.46" y="0">r</tspan><tspan x="43.04" y="0">ation)</tspan></text><line class="uuid-4ebda2ef-44e8-4401-b439-379417d2f303" x1="33.84" y1="173.72" x2="258.24" y2="173.72"/><line class="uuid-4ebda2ef-44e8-4401-b439-379417d2f303" x1="33.84" y1="173.72" x2="33.84" y2="178.47"/><line class="uuid-4ebda2ef-44e8-4401-b439-379417d2f303" x1="62.24" y1="173.72" x2="62.24" y2="178.47"/><line class="uuid-4ebda2ef-44e8-4401-b439-379417d2f303" x1="90.65" y1="173.72" x2="90.65" y2="178.47"/><line class="uuid-4ebda2ef-44e8-4401-b439-379417d2f303" x1="119.05" y1="173.72" x2="119.05" y2="178.47"/><line class="uuid-4ebda2ef-44e8-4401-b439-379417d2f303" x1="147.46" y1="173.72" x2="147.46" y2="178.47"/><line class="uuid-4ebda2ef-44e8-4401-b439-379417d2f303" x1="175.86" y1="173.72" x2="175.86" y2="178.47"/><line class="uuid-4ebda2ef-44e8-4401-b439-379417d2f303" x1="204.27" y1="173.72" x2="204.27" y2="178.47"/><line class="uuid-4ebda2ef-44e8-4401-b439-379417d2f303" x1="232.67" y1="173.72" x2="232.67" y2="178.47"/><text class="uuid-928fc652-1f2c-4c14-abc7-a75f3e2094fb" transform="translate(32.17 183.7)"><tspan class="uuid-dbedfa80-75c9-4e6b-a219-d1084d66463f" x="0" y="0">0</tspan><tspan x="26.73" y="0">5</tspan><tspan class="uuid-40ad4901-7123-4540-821c-ae2cb7653bb1" x="30.06" y="0">0</tspan><tspan x="53.46" y="0">10</tspan><tspan class="uuid-b4708626-108b-466b-ac70-61156b09b740" x="60.14" y="0">0</tspan><tspan x="81.87" y="0">15</tspan><tspan class="uuid-05af25c4-2e4e-489d-88ba-9203400caa82" x="88.54" y="0">0</tspan><tspan x="110.27" y="0">20</tspan><tspan class="uuid-b4708626-108b-466b-ac70-61156b09b740" x="116.94" y="0">0</tspan><tspan x="138.68" y="0">25</tspan><tspan class="uuid-6a258a2b-3e76-4194-b7d1-768768d2f452" x="145.35" y="0">0</tspan><tspan x="167.08" y="0">30</tspan><tspan class="uuid-b4708626-108b-466b-ac70-61156b09b740" x="173.75" y="0">0</tspan><tspan x="195.48" y="0">350</tspan></text><g class="uuid-22beda82-063a-49f4-bb32-5b730fc5571f"><line class="uuid-71f87a06-094b-4b94-8fd8-5871ee233852" x1="33.84" y1="173.72" x2="33.84" y2="7.14"/><line class="uuid-71f87a06-094b-4b94-8fd8-5871ee233852" x1="90.65" y1="173.72" x2="90.65" y2="7.14"/><line class="uuid-71f87a06-094b-4b94-8fd8-5871ee233852" x1="147.46" y1="173.72" x2="147.46" y2="7.14"/><line class="uuid-71f87a06-094b-4b94-8fd8-5871ee233852" x1="204.27" y1="173.72" x2="204.27" y2="7.14"/><line class="uuid-71f87a06-094b-4b94-8fd8-5871ee233852" x1="28.15" y1="167.55" x2="258.24" y2="167.55"/><line class="uuid-71f87a06-094b-4b94-8fd8-5871ee233852" x1="28.15" y1="120.72" x2="258.24" y2="120.72"/><line class="uuid-71f87a06-094b-4b94-8fd8-5871ee233852" x1="28.15" y1="73.88" x2="258.24" y2="73.88"/><line class="uuid-71f87a06-094b-4b94-8fd8-5871ee233852" x1="28.15" y1="27.05" x2="258.24" y2="27.05"/><polygon class="uuid-2c04f0ac-a412-4967-8abb-ad150f7bc5e2" points="36.68 168.06 39.52 164.85 42.36 160.97 45.2 156.35 48.04 151.12 50.88 145.07 53.72 138.2 56.56 131.11 59.4 123.44 62.24 115.89 65.08 109.08 67.92 102.56 70.76 96.95 73.6 92.4 76.44 88.64 79.28 85.87 82.12 83.82 84.97 82.36 87.81 81.49 90.65 81.05 93.49 81.14 96.33 81.63 99.17 82.64 102.01 84.01 104.85 85.65 107.69 87.65 110.53 89.67 113.37 91.7 116.21 93.8 119.05 95.87 121.89 97.99 124.73 100.16 127.57 102.39 130.41 104.64 133.25 106.98 136.09 109.29 138.94 111.53 141.78 113.68 144.62 115.68 147.46 117.56 150.3 119.39 153.14 121.13 155.98 122.82 158.82 124.49 161.66 126.11 164.5 127.66 167.34 129.13 170.18 130.53 173.02 131.88 175.86 133.17 178.7 134.43 181.54 135.7 184.38 136.92 187.22 138.05 190.06 139.12 192.91 140.08 195.75 140.99 198.59 141.84 201.43 142.63 204.27 143.38 207.11 144.09 209.95 144.76 212.79 145.39 215.63 145.97 218.47 146.57 221.31 147.18 224.15 147.79 226.99 148.39 229.83 148.99 232.67 149.54 235.51 150.04 238.35 150.5 241.19 150.94 244.03 151.34 246.88 151.71 249.72 152.05 249.72 152.81 246.88 152.47 244.03 152.1 241.19 151.7 238.35 151.28 235.51 150.83 232.67 150.35 229.83 149.83 226.99 149.27 224.15 148.7 221.31 148.12 218.47 147.53 215.63 146.96 212.79 146.4 209.95 145.79 207.11 145.14 204.27 144.44 201.43 143.71 198.59 142.94 195.75 142.11 192.91 141.23 190.06 140.28 187.22 139.25 184.38 138.16 181.54 136.97 178.7 135.74 175.86 134.5 173.02 133.23 170.18 131.9 167.34 130.52 164.5 129.08 161.66 127.56 158.82 125.97 155.98 124.33 153.14 122.67 150.3 120.94 147.46 119.14 144.62 117.28 141.78 115.31 138.94 113.16 136.09 110.93 133.25 108.62 130.41 106.3 127.57 104.05 124.73 101.82 121.89 99.65 119.05 97.52 116.21 95.43 113.37 93.3 110.53 91.22 107.69 89.15 104.85 87.12 102.01 85.43 99.17 84.01 96.33 82.95 93.49 82.42 90.65 82.29 87.81 82.71 84.97 83.58 82.12 85.04 79.28 87.15 76.44 89.99 73.6 93.85 70.76 98.5 67.92 104.16 65.08 110.72 62.24 117.52 59.4 124.97 56.56 132.49 53.72 139.41 50.88 146.07 48.04 151.92 45.2 156.94 42.36 161.34 39.52 165.01 36.68 167.99 36.68 168.06"/><polygon class="uuid-54f7d2a2-b958-4c42-b36a-3ba2f4ec1e92" points="36.68 168.06 39.52 164.85 42.36 160.97 45.2 156.35 48.04 151.12 50.88 145.07 53.72 138.2 56.56 131.11 59.4 123.44 62.24 115.89 65.08 109.08 67.92 102.56 70.76 96.95 73.6 92.4 76.44 88.64 79.28 85.87 82.12 83.82 84.97 82.36 87.81 81.49 90.65 81.05 93.49 81.14 96.33 81.63 99.17 82.64 102.01 84.01 104.85 85.65 107.69 87.65 110.53 89.67 113.37 91.7 116.21 93.8 119.05 95.87 121.89 97.99 124.73 100.16 127.57 102.39 130.41 104.64 133.25 106.98 136.09 109.29 138.94 111.53 141.78 113.68 144.62 115.68 147.46 117.56 150.3 119.39 153.14 121.13 155.98 122.82 158.82 124.49 161.66 126.11 164.5 127.66 167.34 129.13 170.18 130.53 173.02 131.88 175.86 133.17 178.7 134.43 181.54 135.7 184.38 136.92 187.22 138.05 190.06 139.12 192.91 140.08 195.75 140.99 198.59 141.84 201.43 142.63 204.27 143.38 207.11 144.09 209.95 144.76 212.79 145.39 215.63 145.97 218.47 146.57 221.31 147.18 224.15 147.79 226.99 148.39 229.83 148.99 232.67 149.54 235.51 150.04 238.35 150.5 241.19 150.94 244.03 151.34 246.88 151.71 249.72 152.05 249.72 152.81 246.88 152.47 244.03 152.1 241.19 151.7 238.35 151.28 235.51 150.83 232.67 150.35 229.83 149.83 226.99 149.27 224.15 148.7 221.31 148.12 218.47 147.53 215.63 146.96 212.79 146.4 209.95 145.79 207.11 145.14 204.27 144.44 201.43 143.71 198.59 142.94 195.75 142.11 192.91 141.23 190.06 140.28 187.22 139.25 184.38 138.16 181.54 136.97 178.7 135.74 175.86 134.5 173.02 133.23 170.18 131.9 167.34 130.52 164.5 129.08 161.66 127.56 158.82 125.97 155.98 124.33 153.14 122.67 150.3 120.94 147.46 119.14 144.62 117.28 141.78 115.31 138.94 113.16 136.09 110.93 133.25 108.62 130.41 106.3 127.57 104.05 124.73 101.82 121.89 99.65 119.05 97.52 116.21 95.43 113.37 93.3 110.53 91.22 107.69 89.15 104.85 87.12 102.01 85.43 99.17 84.01 96.33 82.95 93.49 82.42 90.65 82.29 87.81 82.71 84.97 83.58 82.12 85.04 79.28 87.15 76.44 89.99 73.6 93.85 70.76 98.5 67.92 104.16 65.08 110.72 62.24 117.52 59.4 124.97 56.56 132.49 53.72 139.41 50.88 146.07 48.04 151.92 45.2 156.94 42.36 161.34 39.52 165.01 36.68 167.99 36.68 168.06"/><polygon class="uuid-6105a976-191d-4591-957b-661c78cfc0b5" points="36.68 167.04 39.52 162.48 42.36 157.64 45.2 152.49 48.04 147.1 50.88 141.34 53.72 135.2 56.56 129.11 59.4 122.87 62.24 116.9 65.08 111.7 67.92 106.91 70.76 102.56 73.6 98.74 76.44 95.32 79.28 92.16 82.12 89.39 84.97 87.07 87.81 85.15 90.65 83.81 93.49 82.95 96.33 82.27 99.17 81.78 102.01 81.48 104.85 81.22 107.69 81.11 110.53 81.23 113.37 81.71 116.21 82.35 119.05 83.02 121.89 83.83 124.73 84.7 127.57 85.51 130.41 86.42 133.25 87.48 136.09 88.71 138.94 90.4 141.78 92.18 144.62 93.87 147.46 95.61 150.3 97.17 153.14 98.43 155.98 99.55 158.82 100.52 161.66 101.35 164.5 102.22 167.34 103.14 170.18 104.08 173.02 105.11 175.86 106.19 178.7 107.33 181.54 108.65 184.38 109.97 187.22 111.16 190.06 112.27 192.91 113.17 195.75 114.02 198.59 114.89 201.43 115.7 204.27 116.43 207.11 117.09 209.95 117.7 212.79 118.13 215.63 118.43 218.47 118.82 221.31 119.29 224.15 119.88 226.99 120.79 229.83 121.85 232.67 122.82 235.51 123.66 238.35 124.45 241.19 125.16 244.03 125.81 246.88 126.36 249.72 126.83 249.72 131.97 246.88 131.53 244.03 131.02 241.19 130.44 238.35 129.81 235.51 129.11 232.67 128.37 229.83 127.52 226.99 126.58 224.15 125.78 221.31 125.25 218.47 124.81 215.63 124.45 212.79 124.18 209.95 123.78 207.11 123.16 204.27 122.49 201.43 121.8 198.59 121.05 195.75 120.27 192.91 119.52 190.06 118.74 187.22 117.77 184.38 116.73 181.54 115.63 178.7 114.5 175.86 113.49 173.02 112.51 170.18 111.51 167.34 110.49 164.5 109.45 161.66 108.39 158.82 107.34 155.98 106.18 153.14 104.94 150.3 103.59 147.46 102.01 144.62 100.3 141.78 98.69 138.94 97.13 136.09 95.66 133.25 94.53 130.41 93.5 127.57 92.5 124.73 91.53 121.89 90.42 119.05 89.29 116.21 88.34 113.37 87.51 110.53 86.87 107.69 86.63 104.85 86.66 102.01 86.86 99.17 87.14 96.33 87.64 93.49 88.33 90.65 89.21 87.81 90.59 84.97 92.58 82.12 95 79.28 97.93 76.44 101.24 73.6 104.78 70.76 108.66 67.92 112.87 65.08 117.42 62.24 122.29 59.4 127.83 56.56 133.56 53.72 139.1 50.88 144.64 48.04 149.8 45.2 154.56 42.36 159.07 39.52 163.23 36.68 167.1 36.68 167.04"/><polygon class="uuid-cb8d0e85-baa7-47e6-b58d-442b3056445f" points="36.68 167.04 39.52 162.48 42.36 157.64 45.2 152.49 48.04 147.1 50.88 141.34 53.72 135.2 56.56 129.11 59.4 122.87 62.24 116.9 65.08 111.7 67.92 106.91 70.76 102.56 73.6 98.74 76.44 95.32 79.28 92.16 82.12 89.39 84.97 87.07 87.81 85.15 90.65 83.81 93.49 82.95 96.33 82.27 99.17 81.78 102.01 81.48 104.85 81.22 107.69 81.11 110.53 81.23 113.37 81.71 116.21 82.35 119.05 83.02 121.89 83.83 124.73 84.7 127.57 85.51 130.41 86.42 133.25 87.48 136.09 88.71 138.94 90.4 141.78 92.18 144.62 93.87 147.46 95.61 150.3 97.17 153.14 98.43 155.98 99.55 158.82 100.52 161.66 101.35 164.5 102.22 167.34 103.14 170.18 104.08 173.02 105.11 175.86 106.19 178.7 107.33 181.54 108.65 184.38 109.97 187.22 111.16 190.06 112.27 192.91 113.17 195.75 114.02 198.59 114.89 201.43 115.7 204.27 116.43 207.11 117.09 209.95 117.7 212.79 118.13 215.63 118.43 218.47 118.82 221.31 119.29 224.15 119.88 226.99 120.79 229.83 121.85 232.67 122.82 235.51 123.66 238.35 124.45 241.19 125.16 244.03 125.81 246.88 126.36 249.72 126.83 249.72 131.97 246.88 131.53 244.03 131.02 241.19 130.44 238.35 129.81 235.51 129.11 232.67 128.37 229.83 127.52 226.99 126.58 224.15 125.78 221.31 125.25 218.47 124.81 215.63 124.45 212.79 124.18 209.95 123.78 207.11 123.16 204.27 122.49 201.43 121.8 198.59 121.05 195.75 120.27 192.91 119.52 190.06 118.74 187.22 117.77 184.38 116.73 181.54 115.63 178.7 114.5 175.86 113.49 173.02 112.51 170.18 111.51 167.34 110.49 164.5 109.45 161.66 108.39 158.82 107.34 155.98 106.18 153.14 104.94 150.3 103.59 147.46 102.01 144.62 100.3 141.78 98.69 138.94 97.13 136.09 95.66 133.25 94.53 130.41 93.5 127.57 92.5 124.73 91.53 121.89 90.42 119.05 89.29 116.21 88.34 113.37 87.51 110.53 86.87 107.69 86.63 104.85 86.66 102.01 86.86 99.17 87.14 96.33 87.64 93.49 88.33 90.65 89.21 87.81 90.59 84.97 92.58 82.12 95 79.28 97.93 76.44 101.24 73.6 104.78 70.76 108.66 67.92 112.87 65.08 117.42 62.24 122.29 59.4 127.83 56.56 133.56 53.72 139.1 50.88 144.64 48.04 149.8 45.2 154.56 42.36 159.07 39.52 163.23 36.68 167.1 36.68 167.04"/><polygon class="uuid-d3bbe7e6-a69f-4bc5-bb03-7248ce7bb202" points="36.68 166.8 39.52 163.33 42.36 159.57 45.2 155.49 48.04 151.17 50.88 146.45 53.72 141.35 56.56 136.31 59.4 131.3 62.24 126.48 65.08 122.05 67.92 117.86 70.76 114.12 73.6 110.77 76.44 107.87 79.28 105.89 82.12 104.24 84.97 102.76 87.81 101.43 90.65 99.75 93.49 98.02 96.33 96.41 99.17 94.76 102.01 93.36 104.85 92.67 107.69 92.37 110.53 92.11 113.37 92.04 116.21 91.99 119.05 91.57 121.89 91.03 124.73 90.36 127.57 89.32 130.41 88.31 133.25 87.59 136.09 87.06 138.94 86.94 141.78 87.04 144.62 87.48 147.46 88.2 150.3 88.75 153.14 88.92 155.98 89.01 158.82 89.06 161.66 89.07 164.5 89.36 167.34 90.27 170.18 91.24 173.02 92.11 175.86 93.04 178.7 93.66 181.54 93.62 184.38 93.4 187.22 93.11 190.06 92.88 192.91 92.96 195.75 93.23 198.59 93.9 201.43 94.82 204.27 95.67 207.11 96.37 209.95 97.07 212.79 97.73 215.63 98.33 218.47 98.93 221.31 99.64 224.15 100.37 226.99 101.02 229.83 101.62 232.67 102.13 235.51 102.51 238.35 102.87 241.19 103.23 244.03 103.57 246.88 103.89 249.72 104.19 249.72 112.87 246.88 112.66 244.03 112.41 241.19 112.13 238.35 111.8 235.51 111.46 232.67 111.06 229.83 110.52 226.99 109.89 224.15 109.19 221.31 108.37 218.47 107.58 215.63 106.93 212.79 106.3 209.95 105.64 207.11 104.98 204.27 104.33 201.43 103.51 198.59 102.62 195.75 101.95 192.91 101.61 190.06 101.41 187.22 101.51 184.38 101.65 181.54 101.75 178.7 101.69 175.86 100.97 173.02 99.95 170.18 99.01 167.34 98.04 164.5 97.14 161.66 96.8 158.82 96.75 155.98 96.62 153.14 96.39 150.3 96.07 147.46 95.39 144.62 94.54 141.78 94.01 138.94 93.88 136.09 93.98 133.25 94.58 130.41 95.35 127.57 96.35 124.73 97.35 121.89 97.92 119.05 98.31 116.21 98.61 113.37 98.55 110.53 98.54 107.69 98.81 104.85 99.18 102.01 99.93 99.17 101.39 96.33 103.09 93.49 104.69 90.65 106.39 87.81 108.07 84.97 109.52 82.12 111.1 79.28 112.83 76.44 114.85 73.6 117.63 70.76 120.79 67.92 124.28 65.08 128.13 62.24 132.17 59.4 136.54 56.56 141.04 53.72 145.46 50.88 149.87 48.04 153.92 45.2 157.6 42.36 161.03 39.52 164.14 36.68 166.97 36.68 166.8"/><polygon class="uuid-89f925ff-76e5-4a2a-a968-81a0bdb242aa" points="36.68 166.8 39.52 163.33 42.36 159.57 45.2 155.49 48.04 151.17 50.88 146.45 53.72 141.35 56.56 136.31 59.4 131.3 62.24 126.48 65.08 122.05 67.92 117.86 70.76 114.12 73.6 110.77 76.44 107.87 79.28 105.89 82.12 104.24 84.97 102.76 87.81 101.43 90.65 99.75 93.49 98.02 96.33 96.41 99.17 94.76 102.01 93.36 104.85 92.67 107.69 92.37 110.53 92.11 113.37 92.04 116.21 91.99 119.05 91.57 121.89 91.03 124.73 90.36 127.57 89.32 130.41 88.31 133.25 87.59 136.09 87.06 138.94 86.94 141.78 87.04 144.62 87.48 147.46 88.2 150.3 88.75 153.14 88.92 155.98 89.01 158.82 89.06 161.66 89.07 164.5 89.36 167.34 90.27 170.18 91.24 173.02 92.11 175.86 93.04 178.7 93.66 181.54 93.62 184.38 93.4 187.22 93.11 190.06 92.88 192.91 92.96 195.75 93.23 198.59 93.9 201.43 94.82 204.27 95.67 207.11 96.37 209.95 97.07 212.79 97.73 215.63 98.33 218.47 98.93 221.31 99.64 224.15 100.37 226.99 101.02 229.83 101.62 232.67 102.13 235.51 102.51 238.35 102.87 241.19 103.23 244.03 103.57 246.88 103.89 249.72 104.19 249.72 112.87 246.88 112.66 244.03 112.41 241.19 112.13 238.35 111.8 235.51 111.46 232.67 111.06 229.83 110.52 226.99 109.89 224.15 109.19 221.31 108.37 218.47 107.58 215.63 106.93 212.79 106.3 209.95 105.64 207.11 104.98 204.27 104.33 201.43 103.51 198.59 102.62 195.75 101.95 192.91 101.61 190.06 101.41 187.22 101.51 184.38 101.65 181.54 101.75 178.7 101.69 175.86 100.97 173.02 99.95 170.18 99.01 167.34 98.04 164.5 97.14 161.66 96.8 158.82 96.75 155.98 96.62 153.14 96.39 150.3 96.07 147.46 95.39 144.62 94.54 141.78 94.01 138.94 93.88 136.09 93.98 133.25 94.58 130.41 95.35 127.57 96.35 124.73 97.35 121.89 97.92 119.05 98.31 116.21 98.61 113.37 98.55 110.53 98.54 107.69 98.81 104.85 99.18 102.01 99.93 99.17 101.39 96.33 103.09 93.49 104.69 90.65 106.39 87.81 108.07 84.97 109.52 82.12 111.1 79.28 112.83 76.44 114.85 73.6 117.63 70.76 120.79 67.92 124.28 65.08 128.13 62.24 132.17 59.4 136.54 56.56 141.04 53.72 145.46 50.88 149.87 48.04 153.92 45.2 157.6 42.36 161.03 39.52 164.14 36.68 166.97 36.68 166.8"/><polygon class="uuid-6105a976-191d-4591-957b-661c78cfc0b5" points="36.68 164.91 39.52 158.63 42.36 152.15 45.2 145.43 48.04 138.57 50.88 131.38 53.72 123.88 56.56 116.57 59.4 109.26 62.24 102.33 65.08 96.25 67.92 90.71 70.76 85.82 73.6 81.74 76.44 78.21 79.28 74.92 82.12 72.16 84.97 70.01 87.81 68.42 90.65 67.48 93.49 67.15 96.33 67.34 99.17 68.38 102.01 69.76 104.85 70.95 107.69 72.34 110.53 74 113.37 75.96 116.21 78.1 119.05 80.58 121.89 83.35 124.73 85.92 127.57 88.22 130.41 90.33 133.25 91.98 136.09 93.47 138.94 94.84 141.78 96.18 144.62 97.79 147.46 99.46 150.3 101.14 153.14 103.03 155.98 104.84 158.82 106.25 161.66 107.49 164.5 108.51 167.34 109.14 170.18 109.66 173.02 110.31 175.86 110.95 178.7 111.7 181.54 112.7 184.38 113.74 187.22 114.76 190.06 115.75 192.91 116.57 195.75 117.32 198.59 117.95 201.43 118.48 204.27 119.09 207.11 119.84 209.95 120.6 212.79 121.31 215.63 122.02 218.47 122.73 221.31 123.42 224.15 124.11 226.99 124.86 229.83 125.63 232.67 126.36 235.51 127.05 238.35 127.7 241.19 128.28 244.03 128.8 246.88 129.25 249.72 129.64 249.72 133.67 246.88 133.38 244.03 133.04 241.19 132.64 238.35 132.19 235.51 131.69 232.67 131.13 229.83 130.54 226.99 129.91 224.15 129.27 221.31 128.62 218.47 127.95 215.63 127.28 212.79 126.6 209.95 125.94 207.11 125.25 204.27 124.58 201.43 124.07 198.59 123.66 195.75 123.14 192.91 122.5 190.06 121.78 187.22 120.86 184.38 119.9 181.54 118.98 178.7 118.09 175.86 117.39 173.02 116.78 170.18 116.13 167.34 115.56 164.5 114.91 161.66 113.92 158.82 112.76 155.98 111.45 153.14 109.86 150.3 108.19 147.46 106.65 144.62 105.09 141.78 103.57 138.94 102.27 136.09 100.93 133.25 99.42 130.41 97.75 127.57 95.69 124.73 93.46 121.89 90.96 119.05 88.27 116.21 85.78 113.37 83.48 110.53 81.33 107.69 79.45 104.85 77.79 102.01 76.37 99.17 74.87 96.33 73.74 93.49 73.44 90.65 73.65 87.81 74.47 84.97 75.94 82.12 77.97 79.28 80.6 76.44 83.78 73.6 87.3 70.76 91.37 67.92 96.24 65.08 101.78 62.24 107.75 59.4 114.5 56.56 121.54 53.72 128.46 50.88 135.46 48.04 142.07 45.2 148.26 42.36 154.22 39.52 159.84 36.68 165.18 36.68 164.91"/><polygon class="uuid-83f0c75c-8baf-4518-a1d1-f1f18466b4ee" points="36.68 164.91 39.52 158.63 42.36 152.15 45.2 145.43 48.04 138.57 50.88 131.38 53.72 123.88 56.56 116.57 59.4 109.26 62.24 102.33 65.08 96.25 67.92 90.71 70.76 85.82 73.6 81.74 76.44 78.21 79.28 74.92 82.12 72.16 84.97 70.01 87.81 68.42 90.65 67.48 93.49 67.15 96.33 67.34 99.17 68.38 102.01 69.76 104.85 70.95 107.69 72.34 110.53 74 113.37 75.96 116.21 78.1 119.05 80.58 121.89 83.35 124.73 85.92 127.57 88.22 130.41 90.33 133.25 91.98 136.09 93.47 138.94 94.84 141.78 96.18 144.62 97.79 147.46 99.46 150.3 101.14 153.14 103.03 155.98 104.84 158.82 106.25 161.66 107.49 164.5 108.51 167.34 109.14 170.18 109.66 173.02 110.31 175.86 110.95 178.7 111.7 181.54 112.7 184.38 113.74 187.22 114.76 190.06 115.75 192.91 116.57 195.75 117.32 198.59 117.95 201.43 118.48 204.27 119.09 207.11 119.84 209.95 120.6 212.79 121.31 215.63 122.02 218.47 122.73 221.31 123.42 224.15 124.11 226.99 124.86 229.83 125.63 232.67 126.36 235.51 127.05 238.35 127.7 241.19 128.28 244.03 128.8 246.88 129.25 249.72 129.64 249.72 133.67 246.88 133.38 244.03 133.04 241.19 132.64 238.35 132.19 235.51 131.69 232.67 131.13 229.83 130.54 226.99 129.91 224.15 129.27 221.31 128.62 218.47 127.95 215.63 127.28 212.79 126.6 209.95 125.94 207.11 125.25 204.27 124.58 201.43 124.07 198.59 123.66 195.75 123.14 192.91 122.5 190.06 121.78 187.22 120.86 184.38 119.9 181.54 118.98 178.7 118.09 175.86 117.39 173.02 116.78 170.18 116.13 167.34 115.56 164.5 114.91 161.66 113.92 158.82 112.76 155.98 111.45 153.14 109.86 150.3 108.19 147.46 106.65 144.62 105.09 141.78 103.57 138.94 102.27 136.09 100.93 133.25 99.42 130.41 97.75 127.57 95.69 124.73 93.46 121.89 90.96 119.05 88.27 116.21 85.78 113.37 83.48 110.53 81.33 107.69 79.45 104.85 77.79 102.01 76.37 99.17 74.87 96.33 73.74 93.49 73.44 90.65 73.65 87.81 74.47 84.97 75.94 82.12 77.97 79.28 80.6 76.44 83.78 73.6 87.3 70.76 91.37 67.92 96.24 65.08 101.78 62.24 107.75 59.4 114.5 56.56 121.54 53.72 128.46 50.88 135.46 48.04 142.07 45.2 148.26 42.36 154.22 39.52 159.84 36.68 165.18 36.68 164.91"/><polygon class="uuid-d3bbe7e6-a69f-4bc5-bb03-7248ce7bb202" points="36.68 145.28 39.52 127.67 42.36 111.35 45.2 96.33 48.04 82.6 50.88 70.21 53.72 59.13 56.56 49.25 59.4 40.41 62.24 32.83 65.08 26.63 67.92 21.74 70.76 18.33 73.6 17 76.44 16.81 79.28 17.93 82.12 19.6 84.97 20.63 87.81 21.81 90.65 22.7 93.49 23.54 96.33 24.85 99.17 26.91 102.01 29.36 104.85 32.25 107.69 35.56 110.53 38.75 113.37 41.98 116.21 45.06 119.05 47.59 121.89 49.88 124.73 51.95 127.57 53.78 130.41 55.37 133.25 56.51 136.09 57.61 138.94 58.76 141.78 60.1 144.62 62.2 147.46 64.68 150.3 67.26 153.14 70.28 155.98 73.28 158.82 75.64 161.66 77.79 164.5 79.7 167.34 81.44 170.18 82.94 173.02 84.07 175.86 84.91 178.7 85.5 181.54 85.62 184.38 85.59 187.22 85.62 190.06 85.67 192.91 85.84 195.75 86.1 198.59 86.63 201.43 87.33 204.27 87.98 207.11 88.41 209.95 88.9 212.79 89.66 215.63 90.56 218.47 91.6 221.31 92.97 224.15 94.39 226.99 95.67 229.83 96.98 232.67 98.16 235.51 99.2 238.35 100.1 241.19 100.79 244.03 101.33 246.88 101.7 249.72 101.9 249.72 110.33 246.88 110.24 244.03 110 241.19 109.61 238.35 109.07 235.51 108.35 232.67 107.49 229.83 106.52 226.99 105.44 224.15 104.37 221.31 103.14 218.47 101.96 215.63 101.06 212.79 100.28 209.95 99.65 207.11 99.32 204.27 99.09 201.43 98.66 198.59 98.22 195.75 97.91 192.91 97.83 190.06 97.82 187.22 97.89 184.38 97.95 181.54 98.02 178.7 97.95 175.86 97.48 173.02 96.79 170.18 95.82 167.34 94.51 164.5 92.97 161.66 91.21 158.82 89.2 155.98 86.99 153.14 84.23 150.3 81.44 147.46 79.08 144.62 76.83 141.78 74.91 138.94 73.71 136.09 72.67 133.25 71.59 130.41 70.46 127.57 68.94 124.73 67.17 121.89 65.09 119.05 62.78 116.21 60.18 113.37 56.97 110.53 53.59 107.69 50.27 104.85 46.82 102.01 43.81 99.17 41.33 96.33 39.22 93.49 37.79 90.65 36.8 87.81 35.57 84.97 33.73 82.12 31.92 79.28 29.29 76.44 27.24 73.6 26.69 70.76 27.41 67.92 30.6 65.08 35.49 62.24 41.61 59.4 49.07 56.56 57.73 53.72 67.22 50.88 77.78 48.04 89.51 45.2 102.4 42.36 116.43 39.52 131.61 36.68 147.93 36.68 145.28"/><polygon class="uuid-ca4ea75b-4a8f-4cfb-9f09-289a6ea71c50" points="36.68 145.28 39.52 127.67 42.36 111.35 45.2 96.33 48.04 82.6 50.88 70.21 53.72 59.13 56.56 49.25 59.4 40.41 62.24 32.83 65.08 26.63 67.92 21.74 70.76 18.33 73.6 17 76.44 16.81 79.28 17.93 82.12 19.6 84.97 20.63 87.81 21.81 90.65 22.7 93.49 23.54 96.33 24.85 99.17 26.91 102.01 29.36 104.85 32.25 107.69 35.56 110.53 38.75 113.37 41.98 116.21 45.06 119.05 47.59 121.89 49.88 124.73 51.95 127.57 53.78 130.41 55.37 133.25 56.51 136.09 57.61 138.94 58.76 141.78 60.1 144.62 62.2 147.46 64.68 150.3 67.26 153.14 70.28 155.98 73.28 158.82 75.64 161.66 77.79 164.5 79.7 167.34 81.44 170.18 82.94 173.02 84.07 175.86 84.91 178.7 85.5 181.54 85.62 184.38 85.59 187.22 85.62 190.06 85.67 192.91 85.84 195.75 86.1 198.59 86.63 201.43 87.33 204.27 87.98 207.11 88.41 209.95 88.9 212.79 89.66 215.63 90.56 218.47 91.6 221.31 92.97 224.15 94.39 226.99 95.67 229.83 96.98 232.67 98.16 235.51 99.2 238.35 100.1 241.19 100.79 244.03 101.33 246.88 101.7 249.72 101.9 249.72 110.33 246.88 110.24 244.03 110 241.19 109.61 238.35 109.07 235.51 108.35 232.67 107.49 229.83 106.52 226.99 105.44 224.15 104.37 221.31 103.14 218.47 101.96 215.63 101.06 212.79 100.28 209.95 99.65 207.11 99.32 204.27 99.09 201.43 98.66 198.59 98.22 195.75 97.91 192.91 97.83 190.06 97.82 187.22 97.89 184.38 97.95 181.54 98.02 178.7 97.95 175.86 97.48 173.02 96.79 170.18 95.82 167.34 94.51 164.5 92.97 161.66 91.21 158.82 89.2 155.98 86.99 153.14 84.23 150.3 81.44 147.46 79.08 144.62 76.83 141.78 74.91 138.94 73.71 136.09 72.67 133.25 71.59 130.41 70.46 127.57 68.94 124.73 67.17 121.89 65.09 119.05 62.78 116.21 60.18 113.37 56.97 110.53 53.59 107.69 50.27 104.85 46.82 102.01 43.81 99.17 41.33 96.33 39.22 93.49 37.79 90.65 36.8 87.81 35.57 84.97 33.73 82.12 31.92 79.28 29.29 76.44 27.24 73.6 26.69 70.76 27.41 67.92 30.6 65.08 35.49 62.24 41.61 59.4 49.07 56.56 57.73 53.72 67.22 50.88 77.78 48.04 89.51 45.2 102.4 42.36 116.43 39.52 131.61 36.68 147.93 36.68 145.28"/><polyline class="uuid-47d65147-3307-4895-93d4-1642a0e88909" points="36.68 168.03 39.52 164.93 42.36 161.16 45.2 156.65 48.04 151.52 50.88 145.57 53.72 138.81 56.56 131.8 59.4 124.21 62.24 116.71 65.08 109.9 67.92 103.36 70.76 97.72 73.6 93.13 76.44 89.32 79.28 86.51 82.12 84.43 84.97 82.97 87.81 82.1 90.65 81.67 93.49 81.78 96.33 82.29 99.17 83.33 102.01 84.72 104.85 86.39 107.69 88.4 110.53 90.45 113.37 92.5 116.21 94.61 119.05 96.7 121.89 98.82 124.73 100.99 127.57 103.22 130.41 105.47 133.25 107.8 136.09 110.11 138.94 112.34 141.78 114.5 144.62 116.48 147.46 118.35 150.3 120.16 153.14 121.9 155.98 123.58 158.82 125.23 161.66 126.84 164.5 128.37 167.34 129.82 170.18 131.21 173.02 132.55 175.86 133.83 178.7 135.08 181.54 136.34 184.38 137.54 187.22 138.66 190.06 139.7 192.91 140.66 195.75 141.55 198.59 142.39 201.43 143.17 204.27 143.91 207.11 144.61 209.95 145.27 212.79 145.89 215.63 146.47 218.47 147.05 221.31 147.65 224.15 148.25 226.99 148.83 229.83 149.41 232.67 149.94 235.51 150.43 238.35 150.89 241.19 151.32 244.03 151.72 246.88 152.09 249.72 152.43"/><polyline class="uuid-e292b024-1f89-40e4-968d-b4035df99d83" points="36.68 167.06 39.52 162.86 42.36 158.37 45.2 153.55 48.04 148.48 50.88 143.02 53.72 137.19 56.56 131.37 59.4 125.39 62.24 119.62 65.08 114.58 67.92 109.91 70.76 105.63 73.6 101.78 76.44 98.3 79.28 95.06 82.12 92.2 84.97 89.82 87.81 87.86 90.65 86.5 93.49 85.63 96.33 84.94 99.17 84.45 102.01 84.16 104.85 83.93 107.69 83.86 110.53 84.04 113.37 84.6 116.21 85.33 119.05 86.14 121.89 87.12 124.73 88.1 127.57 88.99 130.41 89.95 133.25 90.99 136.09 92.17 138.94 93.75 141.78 95.42 144.62 97.07 147.46 98.8 150.3 100.38 153.14 101.68 155.98 102.87 158.82 103.93 161.66 104.88 164.5 105.85 167.34 106.84 170.18 107.82 173.02 108.83 175.86 109.85 178.7 110.93 181.54 112.15 184.38 113.36 187.22 114.48 190.06 115.52 192.91 116.36 195.75 117.15 198.59 117.98 201.43 118.76 204.27 119.47 207.11 120.14 209.95 120.76 212.79 121.17 215.63 121.46 218.47 121.83 221.31 122.28 224.15 122.84 226.99 123.7 229.83 124.7 232.67 125.61 235.51 126.4 238.35 127.15 241.19 127.82 244.03 128.44 246.88 128.97 249.72 129.43"/><polyline class="uuid-8739b6f7-30c7-4faa-a050-e196ed42c91c" points="36.68 166.89 39.52 163.74 42.36 160.32 45.2 156.56 48.04 152.57 50.88 148.19 53.72 143.43 56.56 138.7 59.4 133.95 62.24 129.36 65.08 125.12 67.92 121.1 70.76 117.48 73.6 114.23 76.44 111.39 79.28 109.39 82.12 107.7 84.97 106.16 87.81 104.77 90.65 103.08 93.49 101.36 96.33 99.76 99.17 98.08 102.01 96.64 104.85 95.92 107.69 95.58 110.53 95.31 113.37 95.29 116.21 95.29 119.05 94.94 121.89 94.47 124.73 93.85 127.57 92.83 130.41 91.83 133.25 91.07 136.09 90.51 138.94 90.4 141.78 90.51 144.62 90.99 147.46 91.78 150.3 92.39 153.14 92.63 155.98 92.8 158.82 92.89 161.66 92.92 164.5 93.24 167.34 94.14 170.18 95.12 173.02 96.02 175.86 97 178.7 97.67 181.54 97.68 184.38 97.53 187.22 97.3 190.06 97.13 192.91 97.26 195.75 97.55 198.59 98.22 201.43 99.13 204.27 99.97 207.11 100.65 209.95 101.34 212.79 102 215.63 102.62 218.47 103.25 221.31 104 224.15 104.78 226.99 105.46 229.83 106.08 232.67 106.61 235.51 107 238.35 107.35 241.19 107.69 244.03 107.99 246.88 108.26 249.72 108.51"/><polyline class="uuid-57fdb320-4944-43f7-8bbe-bed1a721f7c2" points="36.68 165.04 39.52 159.25 42.36 153.21 45.2 146.88 48.04 140.35 50.88 133.45 53.72 126.2 56.56 119.07 59.4 111.88 62.24 105.04 65.08 99.02 67.92 93.48 70.76 88.6 73.6 84.53 76.44 80.99 79.28 77.76 82.12 75.07 84.97 72.98 87.81 71.45 90.65 70.56 93.49 70.29 96.33 70.52 99.17 71.6 102.01 73.04 104.85 74.35 107.69 75.88 110.53 77.65 113.37 79.72 116.21 81.94 119.05 84.43 121.89 87.16 124.73 89.69 127.57 91.96 130.41 94.04 133.25 95.71 136.09 97.21 138.94 98.57 141.78 99.9 144.62 101.46 147.46 103.07 150.3 104.68 153.14 106.46 155.98 108.17 158.82 109.53 161.66 110.73 164.5 111.73 167.34 112.37 170.18 112.91 173.02 113.56 175.86 114.18 178.7 114.91 181.54 115.86 184.38 116.84 187.22 117.83 190.06 118.78 192.91 119.55 195.75 120.24 198.59 120.81 201.43 121.28 204.27 121.83 207.11 122.55 209.95 123.28 212.79 123.97 215.63 124.66 218.47 125.36 221.31 126.04 224.15 126.71 226.99 127.41 229.83 128.11 232.67 128.77 235.51 129.39 238.35 129.97 241.19 130.48 244.03 130.94 246.88 131.34 249.72 131.68"/><polyline class="uuid-9b1a95d2-7837-4df1-916b-ba9f7e71265c" points="36.68 146.63 39.52 129.67 42.36 113.92 45.2 99.4 48.04 86.09 50.88 74.03 53.72 63.2 56.56 53.52 59.4 44.77 62.24 37.25 65.08 31.07 67.92 26.17 70.76 22.86 73.6 21.81 76.44 21.98 79.28 23.55 82.12 25.69 84.97 27.11 87.81 28.61 90.65 29.67 93.49 30.57 96.33 31.95 99.17 34.04 102.01 36.51 104.85 39.48 107.69 42.87 110.53 46.14 113.37 49.45 116.21 52.6 119.05 55.17 121.89 57.46 124.73 59.53 127.57 61.33 130.41 62.9 133.25 64.05 136.09 65.16 138.94 66.28 141.78 67.56 144.62 69.58 147.46 71.96 150.3 74.43 153.14 77.34 155.98 80.23 158.82 82.51 161.66 84.59 164.5 86.41 167.34 88.03 170.18 89.41 173.02 90.45 175.86 91.21 178.7 91.74 181.54 91.84 184.38 91.8 187.22 91.8 190.06 91.79 192.91 91.88 195.75 92.05 198.59 92.48 201.43 93.05 204.27 93.59 207.11 93.92 209.95 94.32 212.79 95.01 215.63 95.85 218.47 96.82 221.31 98.09 224.15 99.42 226.99 100.61 229.83 101.81 232.67 102.9 235.51 103.85 238.35 104.66 241.19 105.26 244.03 105.72 246.88 106.02 249.72 106.16"/></g><line class="uuid-cd753fa2-9acc-4152-b18f-2513c075b4e4" x1="293.4" y1="167.55" x2="293.4" y2="9.98"/><line class="uuid-cd753fa2-9acc-4152-b18f-2513c075b4e4" x1="293.4" y1="167.55" x2="288.65" y2="167.55"/><line class="uuid-cd753fa2-9acc-4152-b18f-2513c075b4e4" x1="293.4" y1="136.04" x2="288.65" y2="136.04"/><line class="uuid-cd753fa2-9acc-4152-b18f-2513c075b4e4" x1="293.4" y1="104.52" x2="288.65" y2="104.52"/><line class="uuid-cd753fa2-9acc-4152-b18f-2513c075b4e4" x1="293.4" y1="73.01" x2="288.65" y2="73.01"/><line class="uuid-cd753fa2-9acc-4152-b18f-2513c075b4e4" x1="293.4" y1="41.49" x2="288.65" y2="41.49"/><line class="uuid-cd753fa2-9acc-4152-b18f-2513c075b4e4" x1="293.4" y1="9.98" x2="288.65" y2="9.98"/><text class="uuid-928fc652-1f2c-4c14-abc7-a75f3e2094fb" transform="translate(277.93 169.7)"><tspan x="0" y="0">0.0</tspan></text><text class="uuid-928fc652-1f2c-4c14-abc7-a75f3e2094fb" transform="translate(277.93 138.19)"><tspan x="0" y="0">0.2</tspan></text><text class="uuid-928fc652-1f2c-4c14-abc7-a75f3e2094fb" transform="translate(277.93 106.67)"><tspan x="0" y="0">0.4</tspan></text><text class="uuid-928fc652-1f2c-4c14-abc7-a75f3e2094fb" transform="translate(277.93 75.16)"><tspan x="0" y="0">0.6</tspan></text><text class="uuid-928fc652-1f2c-4c14-abc7-a75f3e2094fb" transform="translate(277.93 43.65)"><tspan x="0" y="0">0.8</tspan></text><text class="uuid-928fc652-1f2c-4c14-abc7-a75f3e2094fb" transform="translate(277.93 12.13)"><tspan x="0" y="0">1.0</tspan></text><text class="uuid-93895ced-abed-4ab0-b5f9-bba0a49699b4" transform="translate(274.87 127.13) rotate(-90)"><tspan x="0" y="0">relati</tspan><tspan class="uuid-6a4f47da-985b-4e72-9b4c-2dcdb8fcd110" x="17.34" y="0">v</tspan><tspan x="21.15" y="0">e di</tspan><tspan class="uuid-1bca61af-3f1a-4fe4-a2b1-15212543ad03" x="34.05" y="0">v</tspan><tspan x="37.85" y="0">ersity loss</tspan></text><text class="uuid-93895ced-abed-4ab0-b5f9-bba0a49699b4" transform="translate(376.92 195.58)"><tspan x="0" y="0">Time (gene</tspan><tspan class="uuid-beaba17a-b6b4-4571-a9da-eedc48a7c232" x="40.46" y="0">r</tspan><tspan x="43.04" y="0">ation)</tspan></text><line class="uuid-4ebda2ef-44e8-4401-b439-379417d2f303" x1="299.08" y1="173.72" x2="523.49" y2="173.72"/><line class="uuid-4ebda2ef-44e8-4401-b439-379417d2f303" x1="299.08" y1="173.72" x2="299.08" y2="178.47"/><line class="uuid-4ebda2ef-44e8-4401-b439-379417d2f303" x1="327.49" y1="173.72" x2="327.49" y2="178.47"/><line class="uuid-4ebda2ef-44e8-4401-b439-379417d2f303" x1="355.89" y1="173.72" x2="355.89" y2="178.47"/><line class="uuid-4ebda2ef-44e8-4401-b439-379417d2f303" x1="384.3" y1="173.72" x2="384.3" y2="178.47"/><line class="uuid-4ebda2ef-44e8-4401-b439-379417d2f303" x1="412.7" y1="173.72" x2="412.7" y2="178.47"/><line class="uuid-4ebda2ef-44e8-4401-b439-379417d2f303" x1="441.11" y1="173.72" x2="441.11" y2="178.47"/><line class="uuid-4ebda2ef-44e8-4401-b439-379417d2f303" x1="469.52" y1="173.72" x2="469.52" y2="178.47"/><line class="uuid-4ebda2ef-44e8-4401-b439-379417d2f303" x1="497.92" y1="173.72" x2="497.92" y2="178.47"/><text class="uuid-928fc652-1f2c-4c14-abc7-a75f3e2094fb" transform="translate(297.42 183.7)"><tspan class="uuid-47172b73-9df8-41f8-ac9b-f32bddf27255" x="0" y="0">0</tspan><tspan x="26.72" y="0">5</tspan><tspan class="uuid-ce18dd48-5dbc-4d0c-8587-431f6bdbd6d1" x="30.06" y="0">0</tspan><tspan x="53.46" y="0">10</tspan><tspan class="uuid-bc5a8c12-bf80-47d6-888c-743fd2b69a7e" x="60.14" y="0">0</tspan><tspan x="81.87" y="0">15</tspan><tspan class="uuid-1adba9b8-54a9-4271-b4c3-c1857cd7bcfd" x="88.54" y="0">0</tspan><tspan x="110.27" y="0">20</tspan><tspan class="uuid-bc5a8c12-bf80-47d6-888c-743fd2b69a7e" x="116.94" y="0">0</tspan><tspan x="138.68" y="0">25</tspan><tspan class="uuid-1adba9b8-54a9-4271-b4c3-c1857cd7bcfd" x="145.35" y="0">0</tspan><tspan x="167.08" y="0">30</tspan><tspan class="uuid-bc5a8c12-bf80-47d6-888c-743fd2b69a7e" x="173.75" y="0">0</tspan><tspan x="195.48" y="0">350</tspan></text><g class="uuid-3b9de1c4-cae4-44e0-bbc4-0fc15c1cab4d"><line class="uuid-71f87a06-094b-4b94-8fd8-5871ee233852" x1="299.08" y1="173.72" x2="299.08" y2="7.14"/><line class="uuid-71f87a06-094b-4b94-8fd8-5871ee233852" x1="355.89" y1="173.72" x2="355.89" y2="7.14"/><line class="uuid-71f87a06-094b-4b94-8fd8-5871ee233852" x1="412.7" y1="173.72" x2="412.7" y2="7.14"/><line class="uuid-71f87a06-094b-4b94-8fd8-5871ee233852" x1="469.52" y1="173.72" x2="469.52" y2="7.14"/><line class="uuid-71f87a06-094b-4b94-8fd8-5871ee233852" x1="293.4" y1="167.55" x2="523.49" y2="167.55"/><line class="uuid-71f87a06-094b-4b94-8fd8-5871ee233852" x1="293.4" y1="136.04" x2="523.49" y2="136.04"/><line class="uuid-71f87a06-094b-4b94-8fd8-5871ee233852" x1="293.4" y1="104.52" x2="523.49" y2="104.52"/><line class="uuid-71f87a06-094b-4b94-8fd8-5871ee233852" x1="293.4" y1="73.01" x2="523.49" y2="73.01"/><line class="uuid-71f87a06-094b-4b94-8fd8-5871ee233852" x1="293.4" y1="41.49" x2="523.49" y2="41.49"/><line class="uuid-71f87a06-094b-4b94-8fd8-5871ee233852" x1="293.4" y1="9.98" x2="523.49" y2="9.98"/><polygon class="uuid-2c04f0ac-a412-4967-8abb-ad150f7bc5e2" points="301.92 156.67 304.76 149.55 307.61 142.74 310.45 136.24 313.29 130.04 316.13 124.15 318.97 118.57 321.81 113.28 324.65 108.31 327.49 103.58 330.33 99.03 333.17 94.7 336.01 90.55 338.85 86.56 341.69 82.78 344.53 79.25 347.37 75.9 350.21 72.72 353.05 69.7 355.89 66.78 358.73 63.99 361.58 61.33 364.42 58.8 367.26 56.4 370.1 54.15 372.94 52.04 375.78 50.02 378.62 48.1 381.46 46.27 384.3 44.51 387.14 42.85 389.98 41.24 392.82 39.69 395.66 38.21 398.5 36.79 401.34 35.44 404.18 34.19 407.02 33 409.86 31.9 412.7 30.88 415.55 29.9 418.39 28.94 421.23 28.04 424.07 27.18 426.91 26.37 429.75 25.6 432.59 24.89 435.43 24.22 438.27 23.57 441.11 22.96 443.95 22.36 446.79 21.79 449.63 21.25 452.47 20.73 455.31 20.25 458.15 19.78 460.99 19.34 463.83 18.92 466.67 18.53 469.52 18.16 472.36 17.81 475.2 17.47 478.04 17.14 480.88 16.83 483.72 16.53 486.56 16.24 489.4 15.96 492.24 15.7 495.08 15.45 497.92 15.21 500.76 14.98 503.6 14.77 506.44 14.57 509.28 14.37 512.12 14.19 514.96 14.03 514.96 14.33 512.12 14.51 509.28 14.7 506.44 14.9 503.6 15.11 500.76 15.34 497.92 15.57 495.08 15.82 492.24 16.08 489.4 16.36 486.56 16.65 483.72 16.95 480.88 17.27 478.04 17.59 475.2 17.93 472.36 18.28 469.52 18.65 466.67 19.04 463.83 19.44 460.99 19.87 458.15 20.33 455.31 20.82 452.47 21.33 449.63 21.86 446.79 22.43 443.95 23.02 441.11 23.63 438.27 24.27 435.43 24.94 432.59 25.62 429.75 26.34 426.91 27.13 424.07 27.96 421.23 28.84 418.39 29.77 415.55 30.75 412.7 31.75 409.86 32.79 407.02 33.92 404.18 35.12 401.34 36.4 398.5 37.77 395.66 39.21 392.82 40.72 389.98 42.29 387.14 43.91 384.3 45.6 381.46 47.38 378.62 49.24 375.78 51.19 372.94 53.24 370.1 55.39 367.26 57.67 364.42 60.1 361.58 62.66 358.73 65.34 355.89 68.14 353.05 71.07 350.21 74.09 347.37 77.27 344.53 80.61 341.69 84.12 338.85 87.88 336.01 91.82 333.17 95.93 330.33 100.22 327.49 104.73 324.65 109.4 321.81 114.3 318.97 119.53 316.13 125.02 313.29 130.81 310.45 136.91 307.61 143.29 304.76 149.97 301.92 156.94 301.92 156.67"/><polygon class="uuid-54f7d2a2-b958-4c42-b36a-3ba2f4ec1e92" points="301.92 156.67 304.76 149.55 307.61 142.74 310.45 136.24 313.29 130.04 316.13 124.15 318.97 118.57 321.81 113.28 324.65 108.31 327.49 103.58 330.33 99.03 333.17 94.7 336.01 90.55 338.85 86.56 341.69 82.78 344.53 79.25 347.37 75.9 350.21 72.72 353.05 69.7 355.89 66.78 358.73 63.99 361.58 61.33 364.42 58.8 367.26 56.4 370.1 54.15 372.94 52.04 375.78 50.02 378.62 48.1 381.46 46.27 384.3 44.51 387.14 42.85 389.98 41.24 392.82 39.69 395.66 38.21 398.5 36.79 401.34 35.44 404.18 34.19 407.02 33 409.86 31.9 412.7 30.88 415.55 29.9 418.39 28.94 421.23 28.04 424.07 27.18 426.91 26.37 429.75 25.6 432.59 24.89 435.43 24.22 438.27 23.57 441.11 22.96 443.95 22.36 446.79 21.79 449.63 21.25 452.47 20.73 455.31 20.25 458.15 19.78 460.99 19.34 463.83 18.92 466.67 18.53 469.52 18.16 472.36 17.81 475.2 17.47 478.04 17.14 480.88 16.83 483.72 16.53 486.56 16.24 489.4 15.96 492.24 15.7 495.08 15.45 497.92 15.21 500.76 14.98 503.6 14.77 506.44 14.57 509.28 14.37 512.12 14.19 514.96 14.03 514.96 14.33 512.12 14.51 509.28 14.7 506.44 14.9 503.6 15.11 500.76 15.34 497.92 15.57 495.08 15.82 492.24 16.08 489.4 16.36 486.56 16.65 483.72 16.95 480.88 17.27 478.04 17.59 475.2 17.93 472.36 18.28 469.52 18.65 466.67 19.04 463.83 19.44 460.99 19.87 458.15 20.33 455.31 20.82 452.47 21.33 449.63 21.86 446.79 22.43 443.95 23.02 441.11 23.63 438.27 24.27 435.43 24.94 432.59 25.62 429.75 26.34 426.91 27.13 424.07 27.96 421.23 28.84 418.39 29.77 415.55 30.75 412.7 31.75 409.86 32.79 407.02 33.92 404.18 35.12 401.34 36.4 398.5 37.77 395.66 39.21 392.82 40.72 389.98 42.29 387.14 43.91 384.3 45.6 381.46 47.38 378.62 49.24 375.78 51.19 372.94 53.24 370.1 55.39 367.26 57.67 364.42 60.1 361.58 62.66 358.73 65.34 355.89 68.14 353.05 71.07 350.21 74.09 347.37 77.27 344.53 80.61 341.69 84.12 338.85 87.88 336.01 91.82 333.17 95.93 330.33 100.22 327.49 104.73 324.65 109.4 321.81 114.3 318.97 119.53 316.13 125.02 313.29 130.81 310.45 136.91 307.61 143.29 304.76 149.97 301.92 156.94 301.92 156.67"/><polygon class="uuid-6105a976-191d-4591-957b-661c78cfc0b5" points="301.92 160.87 304.76 153.54 307.61 146.65 310.45 140.22 313.29 134.21 316.13 128.69 318.97 123.65 321.81 118.93 324.65 114.49 327.49 110.32 330.33 106.42 333.17 102.79 336.01 99.28 338.85 95.85 341.69 92.59 344.53 89.45 347.37 86.49 350.21 83.77 353.05 81.21 355.89 78.74 358.73 76.4 361.58 74.13 364.42 71.88 367.26 69.73 370.1 67.77 372.94 65.95 375.78 64.11 378.62 62.33 381.46 60.52 384.3 58.43 387.14 56.21 389.98 54.18 392.82 52.33 395.66 50.63 398.5 49.29 401.34 48.12 404.18 47.27 407.02 46.47 409.86 45.44 412.7 44.39 415.55 43.21 418.39 41.8 421.23 40.31 424.07 38.77 426.91 37.16 429.75 35.7 432.59 34.41 435.43 33.24 438.27 32.28 441.11 31.49 443.95 30.77 446.79 30.21 449.63 29.68 452.47 29.05 455.31 28.41 458.15 27.71 460.99 27.01 463.83 26.34 466.67 25.69 469.52 25.04 472.36 24.4 475.2 23.79 478.04 23.22 480.88 22.7 483.72 22.22 486.56 21.84 489.4 21.47 492.24 21.04 495.08 20.59 497.92 20.13 500.76 19.62 503.6 19.11 506.44 18.63 509.28 18.15 512.12 17.7 514.96 17.26 514.96 20.06 512.12 20.64 509.28 21.22 506.44 21.82 503.6 22.42 500.76 23.03 497.92 23.63 495.08 24.16 492.24 24.64 489.4 25.12 486.56 25.53 483.72 25.96 480.88 26.5 478.04 27.09 475.2 27.71 472.36 28.38 469.52 29.08 466.67 29.79 463.83 30.52 460.99 31.26 458.15 32.08 455.31 32.9 452.47 33.64 449.63 34.36 446.79 34.93 443.95 35.53 441.11 36.28 438.27 37.11 435.43 38.12 432.59 39.4 429.75 40.82 426.91 42.42 424.07 44.2 421.23 45.88 418.39 47.48 415.55 48.97 412.7 50.17 409.86 51.2 407.02 52.19 404.18 52.88 401.34 53.62 398.5 54.69 395.66 55.97 392.82 57.68 389.98 59.57 387.14 61.64 384.3 63.92 381.46 66.03 378.62 67.81 375.78 69.55 372.94 71.31 370.1 73.03 367.26 74.91 364.42 77 361.58 79.2 358.73 81.46 355.89 83.8 353.05 86.29 350.21 88.93 347.37 91.71 344.53 94.73 341.69 97.89 338.85 101.1 336.01 104.41 333.17 107.72 330.33 111.07 327.49 114.69 324.65 118.54 321.81 122.64 318.97 127.04 316.13 131.73 313.29 136.91 310.45 142.58 307.61 148.67 304.76 155.21 301.92 162.19 301.92 160.87"/><polygon class="uuid-cb8d0e85-baa7-47e6-b58d-442b3056445f" points="301.92 160.87 304.76 153.54 307.61 146.65 310.45 140.22 313.29 134.21 316.13 128.69 318.97 123.65 321.81 118.93 324.65 114.49 327.49 110.32 330.33 106.42 333.17 102.79 336.01 99.28 338.85 95.85 341.69 92.59 344.53 89.45 347.37 86.49 350.21 83.77 353.05 81.21 355.89 78.74 358.73 76.4 361.58 74.13 364.42 71.88 367.26 69.73 370.1 67.77 372.94 65.95 375.78 64.11 378.62 62.33 381.46 60.52 384.3 58.43 387.14 56.21 389.98 54.18 392.82 52.33 395.66 50.63 398.5 49.29 401.34 48.12 404.18 47.27 407.02 46.47 409.86 45.44 412.7 44.39 415.55 43.21 418.39 41.8 421.23 40.31 424.07 38.77 426.91 37.16 429.75 35.7 432.59 34.41 435.43 33.24 438.27 32.28 441.11 31.49 443.95 30.77 446.79 30.21 449.63 29.68 452.47 29.05 455.31 28.41 458.15 27.71 460.99 27.01 463.83 26.34 466.67 25.69 469.52 25.04 472.36 24.4 475.2 23.79 478.04 23.22 480.88 22.7 483.72 22.22 486.56 21.84 489.4 21.47 492.24 21.04 495.08 20.59 497.92 20.13 500.76 19.62 503.6 19.11 506.44 18.63 509.28 18.15 512.12 17.7 514.96 17.26 514.96 20.06 512.12 20.64 509.28 21.22 506.44 21.82 503.6 22.42 500.76 23.03 497.92 23.63 495.08 24.16 492.24 24.64 489.4 25.12 486.56 25.53 483.72 25.96 480.88 26.5 478.04 27.09 475.2 27.71 472.36 28.38 469.52 29.08 466.67 29.79 463.83 30.52 460.99 31.26 458.15 32.08 455.31 32.9 452.47 33.64 449.63 34.36 446.79 34.93 443.95 35.53 441.11 36.28 438.27 37.11 435.43 38.12 432.59 39.4 429.75 40.82 426.91 42.42 424.07 44.2 421.23 45.88 418.39 47.48 415.55 48.97 412.7 50.17 409.86 51.2 407.02 52.19 404.18 52.88 401.34 53.62 398.5 54.69 395.66 55.97 392.82 57.68 389.98 59.57 387.14 61.64 384.3 63.92 381.46 66.03 378.62 67.81 375.78 69.55 372.94 71.31 370.1 73.03 367.26 74.91 364.42 77 361.58 79.2 358.73 81.46 355.89 83.8 353.05 86.29 350.21 88.93 347.37 91.71 344.53 94.73 341.69 97.89 338.85 101.1 336.01 104.41 333.17 107.72 330.33 111.07 327.49 114.69 324.65 118.54 321.81 122.64 318.97 127.04 316.13 131.73 313.29 136.91 310.45 142.58 307.61 148.67 304.76 155.21 301.92 162.19 301.92 160.87"/><polygon class="uuid-d3bbe7e6-a69f-4bc5-bb03-7248ce7bb202" points="301.92 161.05 304.76 154.07 307.61 147.59 310.45 141.61 313.29 136.11 316.13 131.11 318.97 126.63 321.81 122.57 324.65 119.06 327.49 115.88 330.33 112.81 333.17 109.98 336.01 107.28 338.85 104.69 341.69 102.28 344.53 100.11 347.37 98.08 350.21 96.13 353.05 94.33 355.89 92.77 358.73 91.38 361.58 89.88 364.42 88.13 367.26 86.4 370.1 84.75 372.94 83.09 375.78 81.67 378.62 80.77 381.46 79.98 384.3 79.1 387.14 78.25 389.98 77.2 392.82 75.8 395.66 74.32 398.5 72.71 401.34 71.14 404.18 69.9 407.02 68.8 409.86 67.91 412.7 67.19 415.55 66.54 418.39 66.11 421.23 65.67 424.07 65.02 426.91 64.31 429.75 63.56 432.59 62.69 435.43 61.75 438.27 60.8 441.11 59.83 443.95 58.9 446.79 58.04 449.63 57.15 452.47 56.07 455.31 55.01 458.15 53.95 460.99 53.01 463.83 52.42 466.67 52.02 469.52 51.66 472.36 51.44 475.2 51.25 478.04 50.9 480.88 50.5 483.72 50.11 486.56 49.86 489.4 49.58 492.24 49.09 495.08 48.51 497.92 47.93 500.76 47.34 503.6 46.77 506.44 46.24 509.28 45.73 512.12 45.28 514.96 44.85 514.96 52.3 512.12 52.78 509.28 53.29 506.44 53.85 503.6 54.42 500.76 55.04 497.92 55.66 495.08 56.28 492.24 56.88 489.4 57.36 486.56 57.55 483.72 57.7 480.88 57.99 478.04 58.25 475.2 58.5 472.36 58.66 469.52 58.87 466.67 59.22 463.83 59.62 460.99 60.21 458.15 61.18 455.31 62.26 452.47 63.39 449.63 64.54 446.79 65.48 443.95 66.36 441.11 67.2 438.27 68.04 435.43 68.87 432.59 69.68 429.75 70.44 426.91 71.18 424.07 71.9 421.23 72.58 418.39 73.06 415.55 73.53 412.7 74.16 409.86 74.84 407.02 75.66 404.18 76.62 401.34 77.72 398.5 79.17 395.66 80.69 392.82 82.19 389.98 83.64 387.14 84.76 384.3 85.7 381.46 86.64 378.62 87.34 375.78 88.14 372.94 89.5 370.1 91.08 367.26 92.69 364.42 94.43 361.58 96.2 358.73 97.69 355.89 99.07 353.05 100.57 350.21 102.26 347.37 104.06 344.53 105.93 341.69 107.93 338.85 110.08 336.01 112.39 333.17 114.84 330.33 117.42 327.49 120.27 324.65 123.3 321.81 126.65 318.97 130.51 316.13 134.77 313.29 139.51 310.45 144.74 307.61 150.42 304.76 156.57 301.92 163.19 301.92 161.05"/><polygon class="uuid-89f925ff-76e5-4a2a-a968-81a0bdb242aa" points="301.92 161.05 304.76 154.07 307.61 147.59 310.45 141.61 313.29 136.11 316.13 131.11 318.97 126.63 321.81 122.57 324.65 119.06 327.49 115.88 330.33 112.81 333.17 109.98 336.01 107.28 338.85 104.69 341.69 102.28 344.53 100.11 347.37 98.08 350.21 96.13 353.05 94.33 355.89 92.77 358.73 91.38 361.58 89.88 364.42 88.13 367.26 86.4 370.1 84.75 372.94 83.09 375.78 81.67 378.62 80.77 381.46 79.98 384.3 79.1 387.14 78.25 389.98 77.2 392.82 75.8 395.66 74.32 398.5 72.71 401.34 71.14 404.18 69.9 407.02 68.8 409.86 67.91 412.7 67.19 415.55 66.54 418.39 66.11 421.23 65.67 424.07 65.02 426.91 64.31 429.75 63.56 432.59 62.69 435.43 61.75 438.27 60.8 441.11 59.83 443.95 58.9 446.79 58.04 449.63 57.15 452.47 56.07 455.31 55.01 458.15 53.95 460.99 53.01 463.83 52.42 466.67 52.02 469.52 51.66 472.36 51.44 475.2 51.25 478.04 50.9 480.88 50.5 483.72 50.11 486.56 49.86 489.4 49.58 492.24 49.09 495.08 48.51 497.92 47.93 500.76 47.34 503.6 46.77 506.44 46.24 509.28 45.73 512.12 45.28 514.96 44.85 514.96 52.3 512.12 52.78 509.28 53.29 506.44 53.85 503.6 54.42 500.76 55.04 497.92 55.66 495.08 56.28 492.24 56.88 489.4 57.36 486.56 57.55 483.72 57.7 480.88 57.99 478.04 58.25 475.2 58.5 472.36 58.66 469.52 58.87 466.67 59.22 463.83 59.62 460.99 60.21 458.15 61.18 455.31 62.26 452.47 63.39 449.63 64.54 446.79 65.48 443.95 66.36 441.11 67.2 438.27 68.04 435.43 68.87 432.59 69.68 429.75 70.44 426.91 71.18 424.07 71.9 421.23 72.58 418.39 73.06 415.55 73.53 412.7 74.16 409.86 74.84 407.02 75.66 404.18 76.62 401.34 77.72 398.5 79.17 395.66 80.69 392.82 82.19 389.98 83.64 387.14 84.76 384.3 85.7 381.46 86.64 378.62 87.34 375.78 88.14 372.94 89.5 370.1 91.08 367.26 92.69 364.42 94.43 361.58 96.2 358.73 97.69 355.89 99.07 353.05 100.57 350.21 102.26 347.37 104.06 344.53 105.93 341.69 107.93 338.85 110.08 336.01 112.39 333.17 114.84 330.33 117.42 327.49 120.27 324.65 123.3 321.81 126.65 318.97 130.51 316.13 134.77 313.29 139.51 310.45 144.74 307.61 150.42 304.76 156.57 301.92 163.19 301.92 161.05"/><polygon class="uuid-6105a976-191d-4591-957b-661c78cfc0b5" points="301.92 161.39 304.76 153.86 307.61 146.69 310.45 139.9 313.29 133.45 316.13 127.39 318.97 121.72 321.81 116.33 324.65 111.14 327.49 106.23 330.33 101.68 333.17 97.43 336.01 93.34 338.85 89.5 341.69 85.78 344.53 82 347.37 78.3 350.21 74.58 353.05 70.97 355.89 67.58 358.73 64.34 361.58 61.37 364.42 58.7 367.26 56.25 370.1 54.04 372.94 52.07 375.78 50.15 378.62 48.23 381.46 46.37 384.3 44.54 387.14 42.77 389.98 41.15 392.82 39.66 395.66 38.3 398.5 37.18 401.34 36.15 404.18 35.17 407.02 34.19 409.86 33.08 412.7 31.93 415.55 30.8 418.39 29.62 421.23 28.5 424.07 27.57 426.91 26.73 429.75 25.98 432.59 25.37 435.43 24.81 438.27 24.19 441.11 23.59 443.95 23.02 446.79 22.49 449.63 22 452.47 21.59 455.31 21.21 458.15 20.93 460.99 20.66 463.83 20.31 466.67 19.94 469.52 19.54 472.36 19.05 475.2 18.55 478.04 18.05 480.88 17.54 483.72 17.05 486.56 16.58 489.4 16.12 492.24 15.7 495.08 15.32 497.92 14.96 500.76 14.65 503.6 14.37 506.44 14.12 509.28 13.92 512.12 13.75 514.96 13.61 514.96 15.03 512.12 15.27 509.28 15.55 506.44 15.87 503.6 16.23 500.76 16.62 497.92 17.05 495.08 17.51 492.24 18 489.4 18.5 486.56 19.02 483.72 19.56 480.88 20.13 478.04 20.74 475.2 21.33 472.36 21.93 469.52 22.51 466.67 22.99 463.83 23.42 460.99 23.83 458.15 24.17 455.31 24.53 452.47 24.98 449.63 25.46 446.79 26.02 443.95 26.63 441.11 27.29 438.27 28 435.43 28.72 432.59 29.4 429.75 30.14 426.91 31 424.07 31.93 421.23 32.95 418.39 34.15 415.55 35.4 412.7 36.58 409.86 37.76 407.02 38.93 404.18 39.99 401.34 41.06 398.5 42.14 395.66 43.31 392.82 44.7 389.98 46.19 387.14 47.82 384.3 49.59 381.46 51.43 378.62 53.32 375.78 55.29 372.94 57.24 370.1 59.25 367.26 61.52 364.42 64.05 361.58 66.79 358.73 69.88 355.89 73.25 353.05 76.71 350.21 80.3 347.37 83.94 344.53 87.48 341.69 91.09 338.85 94.64 336.01 98.32 333.17 102.32 330.33 106.51 327.49 110.95 324.65 115.71 321.81 120.71 318.97 125.84 316.13 131.19 313.29 136.89 310.45 142.93 307.61 149.28 304.76 155.95 301.92 162.95 301.92 161.39"/><polygon class="uuid-83f0c75c-8baf-4518-a1d1-f1f18466b4ee" points="301.92 161.39 304.76 153.86 307.61 146.69 310.45 139.9 313.29 133.45 316.13 127.39 318.97 121.72 321.81 116.33 324.65 111.14 327.49 106.23 330.33 101.68 333.17 97.43 336.01 93.34 338.85 89.5 341.69 85.78 344.53 82 347.37 78.3 350.21 74.58 353.05 70.97 355.89 67.58 358.73 64.34 361.58 61.37 364.42 58.7 367.26 56.25 370.1 54.04 372.94 52.07 375.78 50.15 378.62 48.23 381.46 46.37 384.3 44.54 387.14 42.77 389.98 41.15 392.82 39.66 395.66 38.3 398.5 37.18 401.34 36.15 404.18 35.17 407.02 34.19 409.86 33.08 412.7 31.93 415.55 30.8 418.39 29.62 421.23 28.5 424.07 27.57 426.91 26.73 429.75 25.98 432.59 25.37 435.43 24.81 438.27 24.19 441.11 23.59 443.95 23.02 446.79 22.49 449.63 22 452.47 21.59 455.31 21.21 458.15 20.93 460.99 20.66 463.83 20.31 466.67 19.94 469.52 19.54 472.36 19.05 475.2 18.55 478.04 18.05 480.88 17.54 483.72 17.05 486.56 16.58 489.4 16.12 492.24 15.7 495.08 15.32 497.92 14.96 500.76 14.65 503.6 14.37 506.44 14.12 509.28 13.92 512.12 13.75 514.96 13.61 514.96 15.03 512.12 15.27 509.28 15.55 506.44 15.87 503.6 16.23 500.76 16.62 497.92 17.05 495.08 17.51 492.24 18 489.4 18.5 486.56 19.02 483.72 19.56 480.88 20.13 478.04 20.74 475.2 21.33 472.36 21.93 469.52 22.51 466.67 22.99 463.83 23.42 460.99 23.83 458.15 24.17 455.31 24.53 452.47 24.98 449.63 25.46 446.79 26.02 443.95 26.63 441.11 27.29 438.27 28 435.43 28.72 432.59 29.4 429.75 30.14 426.91 31 424.07 31.93 421.23 32.95 418.39 34.15 415.55 35.4 412.7 36.58 409.86 37.76 407.02 38.93 404.18 39.99 401.34 41.06 398.5 42.14 395.66 43.31 392.82 44.7 389.98 46.19 387.14 47.82 384.3 49.59 381.46 51.43 378.62 53.32 375.78 55.29 372.94 57.24 370.1 59.25 367.26 61.52 364.42 64.05 361.58 66.79 358.73 69.88 355.89 73.25 353.05 76.71 350.21 80.3 347.37 83.94 344.53 87.48 341.69 91.09 338.85 94.64 336.01 98.32 333.17 102.32 330.33 106.51 327.49 110.95 324.65 115.71 321.81 120.71 318.97 125.84 316.13 131.19 313.29 136.89 310.45 142.93 307.61 149.28 304.76 155.95 301.92 162.95 301.92 161.39"/><polygon class="uuid-d3bbe7e6-a69f-4bc5-bb03-7248ce7bb202" points="301.92 157.87 304.76 150.68 307.61 143.79 310.45 137.24 313.29 130.96 316.13 125.06 318.97 119.5 321.81 114.08 324.65 108.76 327.49 103.53 330.33 98.16 333.17 92.76 336.01 87.66 338.85 82.68 341.69 78.08 344.53 74.29 347.37 70.93 350.21 68.02 353.05 65.44 355.89 63.07 358.73 60.99 361.58 58.92 364.42 56.82 367.26 54.77 370.1 52.68 372.94 50.62 375.78 48.6 378.62 46.6 381.46 44.66 384.3 42.82 387.14 41.06 389.98 39.43 392.82 37.94 395.66 36.56 398.5 35.36 401.34 34.22 404.18 33.12 407.02 32.06 409.86 30.86 412.7 29.61 415.55 28.46 418.39 27.41 421.23 26.46 424.07 25.69 426.91 25.06 429.75 24.52 432.59 24.12 435.43 23.79 438.27 23.47 441.11 23.2 443.95 22.92 446.79 22.68 449.63 22.43 452.47 22.09 455.31 21.72 458.15 21.29 460.99 20.86 463.83 20.46 466.67 20.06 469.52 19.66 472.36 19.3 475.2 18.93 478.04 18.44 480.88 17.88 483.72 17.36 486.56 16.87 489.4 16.43 492.24 16.12 495.08 15.89 497.92 15.69 500.76 15.52 503.6 15.38 506.44 15.25 509.28 15.15 512.12 15.07 514.96 15.01 514.96 18.14 512.12 18.19 509.28 18.26 506.44 18.34 503.6 18.45 500.76 18.58 497.92 18.74 495.08 18.95 492.24 19.19 489.4 19.57 486.56 20.2 483.72 20.93 480.88 21.72 478.04 22.61 475.2 23.37 472.36 23.89 469.52 24.38 466.67 24.86 463.83 25.29 460.99 25.74 458.15 26.28 455.31 26.82 452.47 27.31 449.63 27.77 446.79 28.09 443.95 28.39 441.11 28.7 438.27 29 435.43 29.37 432.59 29.76 429.75 30.23 426.91 30.87 424.07 31.6 421.23 32.46 418.39 33.44 415.55 34.54 412.7 35.83 409.86 37.25 407.02 38.65 404.18 39.95 401.34 41.3 398.5 42.68 395.66 44.13 392.82 45.74 389.98 47.44 387.14 49.29 384.3 51.27 381.46 53.26 378.62 55.28 375.78 57.33 372.94 59.39 370.1 61.47 367.26 63.58 364.42 65.69 361.58 67.85 358.73 69.99 355.89 72.15 353.05 74.56 350.21 77.16 347.37 80.04 344.53 83.36 341.69 87.03 338.85 91.4 336.01 96.06 333.17 100.74 330.33 105.61 327.49 110.49 324.65 115.23 321.81 120.09 318.97 125.19 316.13 130.47 313.29 136.18 310.45 142.32 307.61 148.8 304.76 155.67 301.92 162.91 301.92 157.87"/><polygon class="uuid-ca4ea75b-4a8f-4cfb-9f09-289a6ea71c50" points="301.92 157.87 304.76 150.68 307.61 143.79 310.45 137.24 313.29 130.96 316.13 125.06 318.97 119.5 321.81 114.08 324.65 108.76 327.49 103.53 330.33 98.16 333.17 92.76 336.01 87.66 338.85 82.68 341.69 78.08 344.53 74.29 347.37 70.93 350.21 68.02 353.05 65.44 355.89 63.07 358.73 60.99 361.58 58.92 364.42 56.82 367.26 54.77 370.1 52.68 372.94 50.62 375.78 48.6 378.62 46.6 381.46 44.66 384.3 42.82 387.14 41.06 389.98 39.43 392.82 37.94 395.66 36.56 398.5 35.36 401.34 34.22 404.18 33.12 407.02 32.06 409.86 30.86 412.7 29.61 415.55 28.46 418.39 27.41 421.23 26.46 424.07 25.69 426.91 25.06 429.75 24.52 432.59 24.12 435.43 23.79 438.27 23.47 441.11 23.2 443.95 22.92 446.79 22.68 449.63 22.43 452.47 22.09 455.31 21.72 458.15 21.29 460.99 20.86 463.83 20.46 466.67 20.06 469.52 19.66 472.36 19.3 475.2 18.93 478.04 18.44 480.88 17.88 483.72 17.36 486.56 16.87 489.4 16.43 492.24 16.12 495.08 15.89 497.92 15.69 500.76 15.52 503.6 15.38 506.44 15.25 509.28 15.15 512.12 15.07 514.96 15.01 514.96 18.14 512.12 18.19 509.28 18.26 506.44 18.34 503.6 18.45 500.76 18.58 497.92 18.74 495.08 18.95 492.24 19.19 489.4 19.57 486.56 20.2 483.72 20.93 480.88 21.72 478.04 22.61 475.2 23.37 472.36 23.89 469.52 24.38 466.67 24.86 463.83 25.29 460.99 25.74 458.15 26.28 455.31 26.82 452.47 27.31 449.63 27.77 446.79 28.09 443.95 28.39 441.11 28.7 438.27 29 435.43 29.37 432.59 29.76 429.75 30.23 426.91 30.87 424.07 31.6 421.23 32.46 418.39 33.44 415.55 34.54 412.7 35.83 409.86 37.25 407.02 38.65 404.18 39.95 401.34 41.3 398.5 42.68 395.66 44.13 392.82 45.74 389.98 47.44 387.14 49.29 384.3 51.27 381.46 53.26 378.62 55.28 375.78 57.33 372.94 59.39 370.1 61.47 367.26 63.58 364.42 65.69 361.58 67.85 358.73 69.99 355.89 72.15 353.05 74.56 350.21 77.16 347.37 80.04 344.53 83.36 341.69 87.03 338.85 91.4 336.01 96.06 333.17 100.74 330.33 105.61 327.49 110.49 324.65 115.23 321.81 120.09 318.97 125.19 316.13 130.47 313.29 136.18 310.45 142.32 307.61 148.8 304.76 155.67 301.92 162.91 301.92 157.87"/><polyline class="uuid-47d65147-3307-4895-93d4-1642a0e88909" points="301.92 156.81 304.76 149.76 307.61 143.02 310.45 136.57 313.29 130.43 316.13 124.59 318.97 119.05 321.81 113.79 324.65 108.85 327.49 104.16 330.33 99.63 333.17 95.32 336.01 91.19 338.85 87.22 341.69 83.45 344.53 79.93 347.37 76.59 350.21 73.41 353.05 70.39 355.89 67.46 358.73 64.67 361.58 61.99 364.42 59.45 367.26 57.03 370.1 54.77 372.94 52.64 375.78 50.6 378.62 48.66 381.46 46.82 384.3 45.05 387.14 43.38 389.98 41.76 392.82 40.21 395.66 38.71 398.5 37.28 401.34 35.92 404.18 34.65 407.02 33.46 409.86 32.35 412.7 31.32 415.55 30.32 418.39 29.36 421.23 28.44 424.07 27.57 426.91 26.74 429.75 25.97 432.59 25.25 435.43 24.58 438.27 23.92 441.11 23.29 443.95 22.69 446.79 22.11 449.63 21.55 452.47 21.03 455.31 20.53 458.15 20.05 460.99 19.6 463.83 19.18 466.67 18.78 469.52 18.4 472.36 18.04 475.2 17.7 478.04 17.37 480.88 17.05 483.72 16.74 486.56 16.44 489.4 16.16 492.24 15.89 495.08 15.63 497.92 15.39 500.76 15.16 503.6 14.94 506.44 14.73 509.28 14.54 512.12 14.35 514.96 14.18"/><polyline class="uuid-e292b024-1f89-40e4-968d-b4035df99d83" points="301.92 161.52 304.76 154.37 307.61 147.66 310.45 141.4 313.29 135.57 316.13 130.22 318.97 125.36 321.81 120.8 324.65 116.53 327.49 112.52 330.33 108.77 333.17 105.28 336.01 101.87 338.85 98.51 341.69 95.27 344.53 92.12 347.37 89.12 350.21 86.37 353.05 83.77 355.89 81.29 358.73 78.95 361.58 76.68 364.42 74.45 367.26 72.32 370.1 70.4 372.94 68.63 375.78 66.83 378.62 65.08 381.46 63.29 384.3 61.18 387.14 58.94 389.98 56.88 392.82 55.01 395.66 53.3 398.5 51.99 401.34 50.87 404.18 50.07 407.02 49.33 409.86 48.32 412.7 47.28 415.55 46.08 418.39 44.63 421.23 43.09 424.07 41.48 426.91 39.78 429.75 38.24 432.59 36.89 435.43 35.67 438.27 34.68 441.11 33.87 443.95 33.13 446.79 32.55 449.63 32.01 452.47 31.33 455.31 30.63 458.15 29.88 460.99 29.12 463.83 28.41 466.67 27.72 469.52 27.04 472.36 26.37 475.2 25.72 478.04 25.13 480.88 24.57 483.72 24.06 486.56 23.66 489.4 23.27 492.24 22.81 495.08 22.35 497.92 21.85 500.76 21.3 503.6 20.74 506.44 20.2 509.28 19.67 512.12 19.15 514.96 18.65"/><polyline class="uuid-8739b6f7-30c7-4faa-a050-e196ed42c91c" points="301.92 162.12 304.76 155.33 307.61 149.01 310.45 143.18 313.29 137.82 316.13 132.96 318.97 128.59 321.81 124.63 324.65 121.2 327.49 118.1 330.33 115.13 333.17 112.42 336.01 109.85 338.85 107.4 341.69 105.12 344.53 103.03 347.37 101.09 350.21 99.22 353.05 97.48 355.89 95.95 358.73 94.57 361.58 93.08 364.42 91.31 367.26 89.58 370.1 87.94 372.94 86.32 375.78 84.92 378.62 84.07 381.46 83.33 384.3 82.42 387.14 81.52 389.98 80.44 392.82 79.02 395.66 77.52 398.5 75.97 401.34 74.46 404.18 73.3 407.02 72.27 409.86 71.41 412.7 70.7 415.55 70.06 418.39 69.59 421.23 69.13 424.07 68.46 426.91 67.75 429.75 67 432.59 66.19 435.43 65.32 438.27 64.43 441.11 63.53 443.95 62.64 446.79 61.78 449.63 60.87 452.47 59.76 455.31 58.67 458.15 57.59 460.99 56.63 463.83 56.04 466.67 55.63 469.52 55.28 472.36 55.06 475.2 54.89 478.04 54.59 480.88 54.25 483.72 53.92 486.56 53.7 489.4 53.47 492.24 52.98 495.08 52.39 497.92 51.79 500.76 51.19 503.6 50.6 506.44 50.05 509.28 49.52 512.12 49.05 514.96 48.6"/><polyline class="uuid-57fdb320-4944-43f7-8bbe-bed1a721f7c2" points="301.92 162.15 304.76 154.91 307.61 148 310.45 141.44 313.29 135.21 316.13 129.33 318.97 123.82 321.81 118.55 324.65 113.45 327.49 108.6 330.33 104.1 333.17 99.88 336.01 95.83 338.85 92.07 341.69 88.44 344.53 84.76 347.37 81.14 350.21 77.46 353.05 73.87 355.89 70.44 358.73 67.14 361.58 64.1 364.42 61.4 367.26 58.9 370.1 56.66 372.94 54.67 375.78 52.73 378.62 50.79 381.46 48.91 384.3 47.07 387.14 45.29 389.98 43.66 392.82 42.17 395.66 40.79 398.5 39.65 401.34 38.6 404.18 37.56 407.02 36.54 409.86 35.4 412.7 34.23 415.55 33.08 418.39 31.87 421.23 30.71 424.07 29.74 426.91 28.85 429.75 28.05 432.59 27.36 435.43 26.74 438.27 26.07 441.11 25.41 443.95 24.8 446.79 24.23 449.63 23.72 452.47 23.27 455.31 22.86 458.15 22.54 460.99 22.23 463.83 21.85 466.67 21.45 469.52 21.01 472.36 20.48 475.2 19.92 478.04 19.38 480.88 18.82 483.72 18.29 486.56 17.78 489.4 17.29 492.24 16.83 495.08 16.39 497.92 15.98 500.76 15.61 503.6 15.28 506.44 14.98 509.28 14.72 512.12 14.49 514.96 14.31"/><polyline class="uuid-9b1a95d2-7837-4df1-916b-ba9f7e71265c" points="301.92 160.4 304.76 153.18 307.61 146.3 310.45 139.78 313.29 133.57 316.13 127.77 318.97 122.36 321.81 117.1 324.65 112.02 327.49 107.04 330.33 101.91 333.17 96.78 336.01 91.88 338.85 87.07 341.69 82.58 344.53 78.85 347.37 75.5 350.21 72.6 353.05 70 355.89 67.6 358.73 65.47 361.58 63.36 364.42 61.24 367.26 59.17 370.1 57.07 372.94 55.01 375.78 52.97 378.62 50.94 381.46 48.96 384.3 47.03 387.14 45.15 389.98 43.41 392.82 41.81 395.66 40.32 398.5 38.99 401.34 37.73 404.18 36.51 407.02 35.32 409.86 34.02 412.7 32.69 415.55 31.46 418.39 30.38 421.23 29.42 424.07 28.61 426.91 27.92 429.75 27.33 432.59 26.89 435.43 26.54 438.27 26.19 441.11 25.91 443.95 25.61 446.79 25.35 449.63 25.07 452.47 24.68 455.31 24.25 458.15 23.76 460.99 23.26 463.83 22.84 466.67 22.42 469.52 21.98 472.36 21.56 475.2 21.11 478.04 20.49 480.88 19.77 483.72 19.11 486.56 18.51 489.4 17.97 492.24 17.63 495.08 17.39 497.92 17.19 500.76 17.02 503.6 16.89 506.44 16.77 509.28 16.67 512.12 16.6 514.96 16.54"/></g><rect class="uuid-58481753-2f9b-4404-b643-e7bad4c717c1" x="398.26" y="157.08" width="4.28" height="3.56"/><rect class="uuid-db9d254e-c208-4356-83cb-2c4178cd3da8" x="398.26" y="164.21" width="4.28" height="3.56"/><line class="uuid-6e91d0c0-b532-43b5-97ea-6965fcea9aa7" x1="316.38" y1="158.86" x2="333.38" y2="158.86"/><line class="uuid-00917bb3-37a0-46d2-8d94-e978e77e139d" x1="317.38" y1="165.99" x2="332.38" y2="165.99"/><line class="uuid-47d65147-3307-4895-93d4-1642a0e88909" x1="457.54" y1="151.74" x2="468.23" y2="151.74"/><text class="uuid-5b3bfcba-54c5-49db-b67d-064ff16ea552" transform="translate(324.88 151.74)"><tspan x="0" y="0">h</tspan></text><text class="uuid-6c39850a-05c5-4511-9412-41d814f60d24" transform="translate(338.58 161.02)"><tspan x="0" y="0">0.1</tspan></text><text class="uuid-6c39850a-05c5-4511-9412-41d814f60d24" transform="translate(338.58 168.15)"><tspan x="0" y="0">0.5</tspan></text><text class="uuid-5b3bfcba-54c5-49db-b67d-064ff16ea552" transform="translate(394.32 151.74)"><tspan x="0" y="0"> (bp/gen)</tspan></text><text class="uuid-6c39850a-05c5-4511-9412-41d814f60d24" transform="translate(406.58 161.02)"><tspan x="0" y="0">510</tspan></text><text class="uuid-4f6b97f9-8ea6-4853-bf8f-4d1ed3f18938" transform="translate(426.85 158.03) scale(.58)"><tspan x="0" y="0">9</tspan></text><text class="uuid-6c39850a-05c5-4511-9412-41d814f60d24" transform="translate(406.58 168.15)"><tspan x="0" y="0">110</tspan></text><text class="uuid-4f6b97f9-8ea6-4853-bf8f-4d1ed3f18938" transform="translate(426.85 165.16) scale(.58)"><tspan x="0" y="0">9</tspan></text><text class="uuid-6c39850a-05c5-4511-9412-41d814f60d24" transform="translate(473.57 153.89)"><tspan x="0" y="0">s = 0 (neut</tspan><tspan class="uuid-138b25f3-277b-4193-91eb-37c424927631" x="42.78" y="0">r</tspan><tspan x="45.68" y="0">al)</tspan></text><text class="uuid-6928a62b-6a32-48a2-8640-031dea450ac5" transform="translate(12.96 13.31)"><tspan x="0" y="0">A</tspan></text><text class="uuid-7e1fb4ad-7399-4664-a650-ec53c3d50cfb" transform="translate(264.26 13.5)"><tspan x="0" y="0">B</tspan></text></svg>